<svg xmlns="http://www.w3.org/2000/svg" xmlns:xlink="http://www.w3.org/1999/xlink" contentStyleType="text/css" height="370px" preserveAspectRatio="none" style="width:523px;height:370px;background:#FFFFFF;" version="1.1" viewBox="0 0 523 370" width="523px" zoomAndPan="magnify"><title>&#36830;&#25509;&#29983;&#21629;&#21608;&#26399;&#19982;&#35266;&#23519;&#20851;&#31995;</title><defs/><g><text fill="#000000" font-family="Noto Sans CJK SC" font-size="14" font-weight="bold" lengthAdjust="spacing" textLength="153.9993" x="177.9051" y="26.2399">&#36830;&#25509;&#29983;&#21629;&#21608;&#26399;&#19982;&#35266;&#23519;&#20851;&#31995;</text><!--entity manager--><g id="elem_manager"><rect fill="#F1F1F1" height="40.2719" rx="4" ry="4" style="stroke:#181818;stroke-width:0.5;" width="89.9997" x="7" y="58.7719"/><text fill="#000000" font-family="Noto Sans CJK SC" font-size="14" lengthAdjust="spacing" textLength="69.9997" x="17" y="85.0118">&#36830;&#25509;&#31649;&#29702;&#22120;</text></g><!--entity conn--><g id="elem_conn"><rect fill="#F1F1F1" height="60.5438" rx="4" ry="4" style="stroke:#181818;stroke-width:0.5;" width="159.9994" x="142" y="191.2719"/><text fill="#000000" font-family="Noto Sans CJK SC" font-size="14" lengthAdjust="spacing" textLength="75.5437" x="152" y="217.5118">Connection</text><text fill="#000000" font-family="Noto Sans CJK SC" font-size="14" lengthAdjust="spacing" textLength="139.9994" x="152" y="237.7838">&#20869;&#37096;&#29366;&#24577;&#30001;&#25191;&#34892;&#22495;&#20445;&#25252;</text></g><!--entity task--><g id="elem_task"><rect fill="#F1F1F1" height="60.5438" rx="4" ry="4" style="stroke:#181818;stroke-width:0.5;" width="131.9995" x="156" y="48.2719"/><text fill="#000000" font-family="Noto Sans CJK SC" font-size="14" lengthAdjust="spacing" textLength="97.9996" x="166" y="74.5118">&#27491;&#22312;&#25191;&#34892;&#30340;&#20219;&#21153;</text><text fill="#000000" font-family="Noto Sans CJK SC" font-size="14" lengthAdjust="spacing" textLength="111.9995" x="166" y="94.7838">&#38656;&#35201;&#24310;&#38271;&#36830;&#25509;&#23551;&#21629;</text></g><!--entity timer--><g id="elem_timer"><rect fill="#F1F1F1" height="60.5438" rx="4" ry="4" style="stroke:#181818;stroke-width:0.5;" width="145.9995" x="347" y="48.2719"/><text fill="#000000" font-family="Noto Sans CJK SC" font-size="14" lengthAdjust="spacing" textLength="95.7596" x="357" y="74.5118">&#23450;&#26102;&#22120; / &#35266;&#23519;&#32773;</text><text fill="#000000" font-family="Noto Sans CJK SC" font-size="14" lengthAdjust="spacing" textLength="125.9995" x="357" y="94.7838">&#19981;&#24212;&#35753;&#36830;&#25509;&#19968;&#30452;&#23384;&#27963;</text></g><g id="elem_GMN9"><path d="M123.5,317.2719 L123.5,359.8157 A4,4 0 0 0 127.5,363.8157 L316.9132,363.8157 A4,4 0 0 0 320.9132,359.8157 L320.9132,323.2719 L310.9132,313.2719 L226,313.2719 L222,252.3919 L218,313.2719 L127.5,313.2719 A4,4 0 0 0 123.5,317.2719 " fill="#FEFFDD" style="stroke:#181818;stroke-width:0.5;"/><path d="M310.9132,313.2719 L310.9132,321.2719 A2,2 0 0 0 312.9132,323.2719 L320.9132,323.2719 L310.9132,313.2719 " fill="#FEFFDD" style="stroke:#181818;stroke-width:0.5;"/><text fill="#000000" font-family="Noto Sans CJK SC" font-size="14" lengthAdjust="spacing" textLength="176.4132" x="129.5" y="334.5118">weak.lock() &#33719;&#24471;&#20020;&#26102;&#24378;&#24341;&#29992;</text><text fill="#000000" font-family="Noto Sans CJK SC" font-size="14" lengthAdjust="spacing" textLength="167.9993" x="129.5" y="354.7838">&#29983;&#21629;&#26399;&#20445;&#38556;&#19981;&#31561;&#20110;&#32447;&#31243;&#23433;&#20840;</text></g><!--link manager to conn--><g id="link_manager_conn"><path d="M54.07,98.8719 C56.97,117.0119 63.84,144.0119 80,161.2719 C96.62,179.0319 113.7959,189.4617 136.2159,198.3917 " fill="none" id="manager-to-conn" style="stroke:#4F5D75;stroke-width:1;"/><polygon fill="#4F5D75" points="141.79,200.6119,134.909,193.5655,137.1449,198.7617,131.9487,200.9977,141.79,200.6119" style="stroke:#4F5D75;stroke-width:1;"/><text fill="#000000" font-family="Noto Sans CJK SC" font-size="14" lengthAdjust="spacing" textLength="128.0155" x="81" y="156.5118">shared_ptr&#65288;&#25345;&#26377;&#65289;</text></g><!--link task to conn--><g id="link_task_conn"><path d="M220.21,109.4219 C219.71,118.9519 219.24,129.5519 219,139.2719 C218.57,156.4019 218.9093,169.55 219.7093,184.98 " fill="none" id="task-to-conn" style="stroke:#4F5D75;stroke-width:1;"/><polygon fill="#4F5D75" points="220.02,190.9719,223.5486,181.7769,219.7611,185.9786,215.5594,182.1911,220.02,190.9719" style="stroke:#4F5D75;stroke-width:1;"/><text fill="#000000" font-family="Noto Sans CJK SC" font-size="14" lengthAdjust="spacing" textLength="156.0154" x="220" y="156.5118">shared_ptr&#65288;&#20020;&#26102;&#25345;&#26377;&#65289;</text></g><!--link timer to conn--><g id="link_timer_conn"><path d="M411.89,109.5619 C405.86,126.7019 396.04,147.5019 381,161.2719 C359.04,181.3719 335.3642,193.0113 307.8342,201.9913 " fill="none" id="timer-to-conn" style="stroke:#4F5D75;stroke-width:1;stroke-dasharray:7.0,7.0;"/><polygon fill="#4F5D75" points="302.13,203.8519,311.9267,204.8637,306.8835,202.3014,309.4459,197.2581,302.13,203.8519" style="stroke:#4F5D75;stroke-width:1;"/><text fill="#000000" font-family="Noto Sans CJK SC" font-size="14" lengthAdjust="spacing" textLength="117.8095" x="398" y="156.5118">weak_ptr&#65288;&#35266;&#23519;&#65289;</text></g><!--SRC=[TP4_RzD06CPtVufJM61e458h40CI2ie0KfUiaT3LkQIMdRleV5KafWH8XKE9g9Ig9NMn8lxK34c56eKe3lZB-EwSgLy1snSgBtZnyFxUvtsUUspJm2r8OHFKK1qUMAnCCDk5JGGAkuGHK87O1gNdBq2bLD3iMtWFwcQ3aWDSAn6BK72dd7qvmjw7DT8sS0FKeMMZtEGffQIzMTikxpnxk9CRvbnKZ5S8FDZE3RE3Eg4OKV18qvZ1B0JYyBCOV9D3Zn__viU-SBreCOWlN_ChZ_UkvNMWCT82IPGzmXX9BXWKwSmWM4l_43SIZS96P3gM7m_v9xy0e0sQ4CC6edciH31MorNC3tlhDxxipqMdAuS_XNCPZu-uvqNXXUX_pHJq1C-lYyaNxlgAbAEtKH3m_hYArsud_jxbmNnz4YeZ_2fCqcGQ3DfcNeDFH-9qddW4zu5A6NTwLHmjFl3bC9x-K0BHeYFFPtno9cQ1aZ6QIPHD9B2rzIGp1nwdFL5KUzbYz6RrJXnrXUlSh1mjFVjVB5hC4WyvE1K7nU8jtKRGtB3AOqfXmj2_4aXTFKuA5YsYctVlWNZmY_yvLTfyjUIh4pdqDLLiscfuiHwvIKuvSQBbG2v3wR_dKuVtV0tX6aZb_m80]--></g></svg>