<svg xmlns="http://www.w3.org/2000/svg" xmlns:xlink="http://www.w3.org/1999/xlink" version="1.1" data-diagram-type="DESCRIPTION" style="width:646px;height:908px;background:#FFFFFF;" width="646px" height="908px" viewBox="0 0 646 908" zoomAndPan="magnify" preserveAspectRatio="none" contentStyleType="text/css"><?plantuml 1.2026.8?><defs/><g font-family="sans-serif" lengthAdjust="spacing"><!--entity start--><g class="entity" data-qualified-name="start" id="ent0001" data-source-line="5"><rect x="109.5" y="12" width="116.586" height="40.272" fill="#F1F1F1" style="stroke:#181818;stroke-width:0.5;" rx="2.5" ry="2.5"/><text x="119.5" y="38.24" fill="#000" font-size="14" textLength="96.586" font-family="'Noto Sans CJK SC'">Enter Idle Task</text></g><!--entity calc--><g class="entity" data-qualified-name="calc" id="ent0002" data-source-line="6"><rect x="48" y="89" width="240.331" height="60.544" fill="#F1F1F1" style="stroke:#181818;stroke-width:0.5;" rx="2.5" ry="2.5"/><text x="58" y="115.24" fill="#000" font-size="14" textLength="220.331" font-family="'Noto Sans CJK SC'">Calculate Next Task Wakeup Time</text><text x="58" y="135.512" fill="#000" font-size="14" textLength="125.803" font-family="'Noto Sans CJK SC'">(Next Wakeup Tick)</text></g><!--entity checkMin--><g class="entity" data-qualified-name="checkMin" id="ent0003" data-source-line="7"><rect x="83.5" y="187" width="168.973" height="60.544" fill="#F1F1F1" style="stroke:#181818;stroke-width:0.5;" rx="2.5" ry="2.5"/><text x="93.5" y="213.24" fill="#000" font-size="14" textLength="97.244" font-family="'Noto Sans CJK SC'">Sleep Duration</text><text x="93.5" y="233.512" fill="#000" font-size="14" textLength="148.973" font-family="'Noto Sans CJK SC'">> Minimum Threshold?</text></g><!--entity normalIdle--><g class="entity" data-qualified-name="normalIdle" id="ent0004" data-source-line="8"><rect x="6" y="306" width="183.883" height="60.544" fill="#F1F1F1" style="stroke:#181818;stroke-width:0.5;" rx="2.5" ry="2.5"/><text x="16" y="332.24" fill="#000" font-size="14" textLength="163.883" font-family="'Noto Sans CJK SC'">Standard Light Sleep WFI</text><text x="16" y="352.512" fill="#000" font-size="14" textLength="143.555" font-family="'Noto Sans CJK SC'">Keep SysTick Running</text></g><!--entity cfgTimer--><g class="entity" data-qualified-name="cfgTimer" id="ent0005" data-source-line="9"><rect x="208.5" y="316.5" width="255.451" height="40.272" fill="#F1F1F1" style="stroke:#181818;stroke-width:0.5;" rx="2.5" ry="2.5"/><text x="218.5" y="342.74" fill="#000" font-size="14" textLength="235.451" font-family="'Noto Sans CJK SC'">Configure Low-Power Timer (LPTIM)</text></g><!--entity stopTick--><g class="entity" data-qualified-name="stopTick" id="ent0006" data-source-line="10"><rect x="230" y="404" width="212.359" height="40.272" fill="#F1F1F1" style="stroke:#181818;stroke-width:0.5;" rx="2.5" ry="2.5"/><text x="240" y="430.24" fill="#000" font-size="14" textLength="192.359" font-family="'Noto Sans CJK SC'">Stop / Mask Standard SysTick</text></g><!--entity raceCheck--><g class="entity" data-qualified-name="raceCheck" id="ent0007" data-source-line="11"><rect x="200.5" y="481" width="271.201" height="60.544" fill="#F1F1F1" style="stroke:#181818;stroke-width:0.5;" rx="2.5" ry="2.5"/><text x="210.5" y="507.24" fill="#000" font-size="14" textLength="251.201" font-family="'Noto Sans CJK SC'">Atomic Check: Any New Interrupt/Task</text><text x="210.5" y="527.512" fill="#000" font-size="14" textLength="191.645" font-family="'Noto Sans CJK SC'">Became Ready During Setup?</text></g><!--entity abortSleep--><g class="entity" data-qualified-name="abortSleep" id="ent0008" data-source-line="12"><rect x="155.5" y="600" width="198.891" height="60.544" fill="#F1F1F1" style="stroke:#181818;stroke-width:0.5;" rx="2.5" ry="2.5"/><text x="165.5" y="626.24" fill="#000" font-size="14" textLength="161.643" font-family="'Noto Sans CJK SC'">Abort Sleep Immediately</text><text x="165.5" y="646.512" fill="#000" font-size="14" textLength="178.891" font-family="'Noto Sans CJK SC'">Restore SysTick Scheduling</text></g><!--entity enterWFI--><g class="entity" data-qualified-name="enterWFI" id="ent0009" data-source-line="13"><rect x="372.5" y="610.5" width="225.001" height="40.272" fill="#F1F1F1" style="stroke:#181818;stroke-width:0.5;" rx="2.5" ry="2.5"/><text x="382.5" y="636.74" fill="#000" font-size="14" textLength="205.001" font-family="'Noto Sans CJK SC'">Execute WFI / WFE (Deep Sleep)</text></g><!--entity wakeup--><g class="entity" data-qualified-name="wakeup" id="ent0010" data-source-line="14"><rect x="383.5" y="698" width="202.587" height="40.272" fill="#F1F1F1" style="stroke:#181818;stroke-width:0.5;" rx="2.5" ry="2.5"/><text x="393.5" y="724.24" fill="#000" font-size="14" textLength="182.587" font-family="'Noto Sans CJK SC'">Hardware Interrupt Wakeup</text></g><!--entity compTime--><g class="entity" data-qualified-name="compTime" id="ent0011" data-source-line="15"><rect x="344" y="775" width="282.373" height="40.272" fill="#F1F1F1" style="stroke:#181818;stroke-width:0.5;" rx="2.5" ry="2.5"/><text x="354" y="801.24" fill="#000" font-size="14" textLength="262.373" font-family="'Noto Sans CJK SC'">Compensate OS Ticks from LPTIM Count</text></g><!--entity resumeOS--><g class="entity" data-qualified-name="resumeOS" id="ent0012" data-source-line="16"><rect x="339.5" y="852" width="291.095" height="40.272" fill="#F1F1F1" style="stroke:#181818;stroke-width:0.5;" rx="2.5" ry="2.5"/><text x="349.5" y="878.24" fill="#000" font-size="14" textLength="271.095" font-family="'Noto Sans CJK SC'">Restore OS Scheduler &amp; Peripheral Clocks</text></g><g class="link" data-entity-1="ent0001" data-entity-2="ent0002" id="lnk13" data-link-type="dependency"><polygon points="168,88.771,172,79.771,168,83.771,164,79.771,168,88.771" fill="#181818" style="stroke:#181818;stroke-width:1;stroke-linejoin:miter;stroke-miterlimit:10;"/><path d="M168,52.401 C168,63.142 168,71.719 168,83.771" style="stroke:#181818;stroke-width:1;" fill="none"/></g><g class="link" data-entity-1="ent0002" data-entity-2="ent0003" id="lnk14" data-link-type="dependency"><polygon points="168,186.846,172,177.846,168,181.846,164,177.846,168,186.846" fill="#181818" style="stroke:#181818;stroke-width:1;stroke-linejoin:miter;stroke-miterlimit:10;"/><path d="M168,150.086 C168,161.766 168,170.16 168,181.846" style="stroke:#181818;stroke-width:1;" fill="none"/></g><g class="link" data-entity-1="ent0003" data-entity-2="ent0004" id="lnk15" data-link-type="dependency"><polygon points="115.658,305.985,123.712,300.316,118.225,301.695,116.846,296.208,115.658,305.985" fill="#181818" style="stroke:#181818;stroke-width:1;stroke-linejoin:miter;stroke-miterlimit:10;"/><path d="M150.336,248.024 C139.725,265.76 128.836,283.96 118.225,301.695" style="stroke:#181818;stroke-width:1;" fill="none"/><text x="141" y="283.08" fill="#000" font-size="13" textLength="17.277" font-family="'Noto Sans CJK SC'">No</text></g><g class="link" data-entity-1="ent0003" data-entity-2="ent0005" id="lnk16" data-link-type="dependency"><polygon points="308.628,316.437,303.529,308.012,304.525,313.58,298.957,314.576,308.628,316.437" fill="#181818" style="stroke:#181818;stroke-width:1;stroke-linejoin:miter;stroke-miterlimit:10;"/><path d="M210.393,248.024 C241.207,269.484 277.911,295.045 304.525,313.58" style="stroke:#181818;stroke-width:1;" fill="none"/><text x="269" y="283.08" fill="#000" font-size="13" textLength="20.189" font-family="'Noto Sans CJK SC'">Yes</text></g><g class="link" data-entity-1="ent0005" data-entity-2="ent0006" id="lnk17" data-link-type="dependency"><polygon points="336,403.97,340,394.97,336,398.97,332,394.97,336,403.97" fill="#181818" style="stroke:#181818;stroke-width:1;stroke-linejoin:miter;stroke-miterlimit:10;"/><path d="M336,356.901 C336,370.992 336,384.966 336,398.97" style="stroke:#181818;stroke-width:1;" fill="none"/></g><g class="link" data-entity-1="ent0006" data-entity-2="ent0007" id="lnk18" data-link-type="dependency"><polygon points="336,480.771,340,471.771,336,475.771,332,471.771,336,480.771" fill="#181818" style="stroke:#181818;stroke-width:1;stroke-linejoin:miter;stroke-miterlimit:10;"/><path d="M336,444.401 C336,455.142 336,463.719 336,475.771" style="stroke:#181818;stroke-width:1;" fill="none"/></g><g class="link" data-entity-1="ent0007" data-entity-2="ent0008" id="lnk19" data-link-type="dependency"><polygon points="275.433,599.985,283.845,594.863,278.279,595.874,277.267,590.309,275.433,599.985" fill="#181818" style="stroke:#181818;stroke-width:1;stroke-linejoin:miter;stroke-miterlimit:10;"/><path d="M315.56,542.024 C303.281,559.76 290.557,578.14 278.279,595.874" style="stroke:#181818;stroke-width:1;" fill="none"/><text x="304" y="577.08" fill="#000" font-size="13" textLength="68.887" font-family="'Noto Sans CJK SC'">Task Ready</text></g><g class="link" data-entity-1="ent0007" data-entity-2="ent0009" id="lnk20" data-link-type="dependency"><polygon points="460.5,610.262,455.892,601.557,456.568,607.174,450.951,607.849,460.5,610.262" fill="#181818" style="stroke:#181818;stroke-width:1;stroke-linejoin:miter;stroke-miterlimit:10;"/><path d="M373.599,542.024 C400.842,563.416 432.959,588.636 456.568,607.174" style="stroke:#181818;stroke-width:1;" fill="none"/><text x="425" y="577.08" fill="#000" font-size="13" textLength="26.494" font-family="'Noto Sans CJK SC'">Safe</text></g><g class="link" data-entity-1="ent0009" data-entity-2="ent0010" id="lnk21" data-link-type="dependency"><polygon points="485,697.97,489,688.97,485,692.97,481,688.97,485,697.97" fill="#181818" style="stroke:#181818;stroke-width:1;stroke-linejoin:miter;stroke-miterlimit:10;"/><path d="M485,650.901 C485,664.992 485,678.966 485,692.97" style="stroke:#181818;stroke-width:1;" fill="none"/></g><g class="link" data-entity-1="ent0010" data-entity-2="ent0011" id="lnk22" data-link-type="dependency"><polygon points="485,774.751,489,765.751,485,769.751,481,765.751,485,774.751" fill="#181818" style="stroke:#181818;stroke-width:1;stroke-linejoin:miter;stroke-miterlimit:10;"/><path d="M485,738.314 C485,749.512 485,758.564 485,769.751" style="stroke:#181818;stroke-width:1;" fill="none"/></g><g class="link" data-entity-1="ent0011" data-entity-2="ent0012" id="lnk23" data-link-type="dependency"><polygon points="485,851.751,489,842.751,485,846.751,481,842.751,485,851.751" fill="#181818" style="stroke:#181818;stroke-width:1;stroke-linejoin:miter;stroke-miterlimit:10;"/><path d="M485,815.314 C485,826.512 485,835.564 485,846.751" style="stroke:#181818;stroke-width:1;" fill="none"/></g><?plantuml-src NLDDR-8m4BtdLumuhDW3whs7LjsqQ6c18eA4LkBYJIR4mX-HFvJoxtVin6co5nZF-8tdlJUnDwvQPfY42clcXLjhvVPC8YpsscaecBAGltz0aI-oXbS8rg51xUujPdO4suPLkkFg2ZKJ5hFCOEcOkWhgywO80PkAuXEpjmKmIqsOSTDBEHEb5ymXxF7BnOjmPZVqBPoun8jQnloOAcy_OwEISDC-XK1iuTKRvhXM5_K4Ewwuz19EZK7RQ54zzy06onlLPc0AAcOgsF9huw3lTLvlBkeZHCNTXeVXw9KYgh6DqaOo4SZDs6XLywit25lThGww8m423GFBxU6qsGsprzUOd8-WMtY0NU0_ZZCyF2Ydst2OWbwSbho4F51wX1Tr9n4xs0JTZM_TGr3pedvX6Nmz8glkGQ7WLe7EjxqWXfKOEymw_zKc2R6H4YjE5edxHHsH1Y5-IPE2zAoyIBAmW8kmsIPyOUd9OfAKE9xNRx1yZSA6Yxqc68Qc-XJscpJe63qsCXhs82Aw6CxLboqg6vRfiuYxOg4sMaBK7dBjbUiDe8l1WIau4IFam8bS-m47DBnjq301kT3KiTSChPVuMMHPN6XOhPxwZGm__IcjMGfYzdjhu17sUbvCQq6bFsYpyHXge_ifYDc9TIcA-MyNg5VyfABv_zrAajETWjMOZUTG7DJj__hnacWfw4SObFW7?></g></svg>