<svg xmlns="http://www.w3.org/2000/svg" xmlns:xlink="http://www.w3.org/1999/xlink" contentStyleType="text/css" height="468px" preserveAspectRatio="none" style="width:202px;height:468px;background:#FFFFFF;" version="1.1" viewBox="0 0 202 468" width="202px" zoomAndPan="magnify"><title>&#22823;&#22411;&#37325;&#26500;&#37324;&#31243;&#30865;</title><defs/><g><text fill="#000000" font-family="Noto Sans CJK SC" font-size="14" font-weight="bold" lengthAdjust="spacing" textLength="97.9996" x="50.9668" y="36.2399">&#22823;&#22411;&#37325;&#26500;&#37324;&#31243;&#30865;</text><ellipse cx="101.4666" cy="61.2719" fill="#222222" rx="10" ry="10" style="stroke:#222222;stroke-width:1;"/><rect fill="#F5F5F5" height="37.3761" rx="4" ry="4" style="stroke:#2D3142;stroke-width:0.5;" width="147.093" x="27.9201" y="91.2719"/><text fill="#2D3142" font-family="Noto Sans CJK SC" font-size="12" lengthAdjust="spacing" textLength="127.093" x="37.9201" y="115.192">M0 &#20195;&#30721;&#22320;&#22270;&#19982;&#20381;&#36182;&#20923;&#32467;</text><rect fill="#F5F5F5" height="37.3761" rx="4" ry="4" style="stroke:#2D3142;stroke-width:0.5;" width="180.9332" x="11" y="148.648"/><text fill="#2D3142" font-family="Noto Sans CJK SC" font-size="12" lengthAdjust="spacing" textLength="160.9332" x="21" y="172.5681">M1 &#25509;&#21475; / Schema &#19982;&#20860;&#23481;&#31574;&#30053;</text><rect fill="#F5F5F5" height="37.3761" rx="4" ry="4" style="stroke:#2D3142;stroke-width:0.5;" width="147.093" x="27.9201" y="206.0242"/><text fill="#2D3142" font-family="Noto Sans CJK SC" font-size="12" lengthAdjust="spacing" textLength="127.093" x="37.9201" y="229.9443">M2 &#26087;&#23454;&#29616;&#19982;&#26032;&#23454;&#29616;&#24182;&#23384;</text><rect fill="#F5F5F5" height="37.3761" rx="4" ry="4" style="stroke:#2D3142;stroke-width:0.5;" width="123.0928" x="39.9202" y="263.4003"/><text fill="#2D3142" font-family="Noto Sans CJK SC" font-size="12" lengthAdjust="spacing" textLength="103.0928" x="49.9202" y="287.3204">M3 &#25968;&#25454;&#25110;&#37197;&#32622;&#36801;&#31227;</text><rect fill="#F5F5F5" height="37.3761" rx="4" ry="4" style="stroke:#2D3142;stroke-width:0.5;" width="135.0929" x="33.9202" y="320.7764"/><text fill="#2D3142" font-family="Noto Sans CJK SC" font-size="12" lengthAdjust="spacing" textLength="115.0929" x="43.9202" y="344.6965">M4 &#27979;&#35797;&#12289;&#35266;&#27979;&#21644;&#22238;&#28378;</text><rect fill="#F5F5F5" height="37.3761" rx="4" ry="4" style="stroke:#2D3142;stroke-width:0.5;" width="99.0926" x="51.9203" y="378.1525"/><text fill="#2D3142" font-family="Noto Sans CJK SC" font-size="12" lengthAdjust="spacing" textLength="79.0926" x="61.9203" y="402.0726">M5 &#21024;&#38500;&#26087;&#36335;&#24452;</text><ellipse cx="101.4666" cy="446.5286" fill="none" rx="11" ry="11" style="stroke:#222222;stroke-width:1;"/><ellipse cx="101.4666" cy="446.5286" fill="#222222" rx="6" ry="6" style="stroke:#222222;stroke-width:1;"/><line style="stroke:#4F5D75;stroke-width:1;" x1="101.4666" x2="101.4666" y1="71.2719" y2="91.2719"/><polygon fill="#4F5D75" points="97.4666,81.2719,101.4666,91.2719,105.4666,81.2719,101.4666,85.2719" style="stroke:#4F5D75;stroke-width:1;"/><line style="stroke:#4F5D75;stroke-width:1;" x1="101.4666" x2="101.4666" y1="128.648" y2="148.648"/><polygon fill="#4F5D75" points="97.4666,138.648,101.4666,148.648,105.4666,138.648,101.4666,142.648" style="stroke:#4F5D75;stroke-width:1;"/><line style="stroke:#4F5D75;stroke-width:1;" x1="101.4666" x2="101.4666" y1="186.0242" y2="206.0242"/><polygon fill="#4F5D75" points="97.4666,196.0242,101.4666,206.0242,105.4666,196.0242,101.4666,200.0242" style="stroke:#4F5D75;stroke-width:1;"/><line style="stroke:#4F5D75;stroke-width:1;" x1="101.4666" x2="101.4666" y1="243.4003" y2="263.4003"/><polygon fill="#4F5D75" points="97.4666,253.4003,101.4666,263.4003,105.4666,253.4003,101.4666,257.4003" style="stroke:#4F5D75;stroke-width:1;"/><line style="stroke:#4F5D75;stroke-width:1;" x1="101.4666" x2="101.4666" y1="300.7764" y2="320.7764"/><polygon fill="#4F5D75" points="97.4666,310.7764,101.4666,320.7764,105.4666,310.7764,101.4666,314.7764" style="stroke:#4F5D75;stroke-width:1;"/><line style="stroke:#4F5D75;stroke-width:1;" x1="101.4666" x2="101.4666" y1="358.1525" y2="378.1525"/><polygon fill="#4F5D75" points="97.4666,368.1525,101.4666,378.1525,105.4666,368.1525,101.4666,372.1525" style="stroke:#4F5D75;stroke-width:1;"/><line style="stroke:#4F5D75;stroke-width:1;" x1="101.4666" x2="101.4666" y1="415.5286" y2="435.5286"/><polygon fill="#4F5D75" points="97.4666,425.5286,101.4666,435.5286,105.4666,425.5286,101.4666,429.5286" style="stroke:#4F5D75;stroke-width:1;"/><!--SRC=[PO_BJW8n58RtynGd-W3ABHfPAOI5HZOyGOK19i2KT8h461Cn82HSZ1hmWX8Y4DnmsQ2IKNmOQJkyXJD83CPsS_9_N_-sManHauYW18JaC4h5gG-hr8yICgpuCSKGGAe6djqz27XM9AhGk0oitMMDuYnVvetiB5yIpqNnT2bflqK7A1YB49nIGnuSnmHMVVErP6XH5C9fHOr06CKrUObi4uBJYsDEdykxuLg2yyuW9gfCO7CfHq6g72hq28ubW9r_jxkiRH5CGZ9Pf7Qlm-Qqcwdrtx_PYQHHHAYqjRyEKxqbcXdsC6JroVIjCfqy6gCQEzU5Vkqs1HlmIeTTj60D0i6ed41WIYptplfZqQk9QiUIxC1lkgpV49MXINbj-3EpyGlhtLg20tXroCjzNgZDScNnqJS-CwAhMyW9V5Gq1jMlqupHFJDdTbLYzGRNxotg0bPepkxQPh_nEc2JhDjyEav-0m00]--></g></svg>