<svg xmlns="http://www.w3.org/2000/svg" xmlns:xlink="http://www.w3.org/1999/xlink" version="1.1" data-diagram-type="SEQUENCE" style="width:931px;height:729px;background:#FFFFFF;" width="931px" height="729px" viewBox="0 0 931 729" zoomAndPan="magnify" preserveAspectRatio="none" contentStyleType="text/css"><?plantuml 1.2026.8?><defs/><g font-family="sans-serif" lengthAdjust="spacing"><g><title>.... .SessionCoordinator.</title><rect x="108.578" y="90.272" width="8" height="547.536" fill="#000" fill-opacity="0"/><line x1="112.078" y1="90.272" x2="112.078" y2="637.808" style="stroke:#181818;stroke-width:0.5;stroke-dasharray:5,5;"/></g><g><title>Reactor.Capture..</title><rect x="384.748" y="90.272" width="8" height="547.536" fill="#000" fill-opacity="0"/><line x1="388.248" y1="90.272" x2="388.248" y2="637.808" style="stroke:#181818;stroke-width:0.5;stroke-dasharray:5,5;"/></g><g><title>Storage Owner</title><rect x="612.022" y="90.272" width="8" height="547.536" fill="#000" fill-opacity="0"/><line x1="615.522" y1="90.272" x2="615.522" y2="637.808" style="stroke:#181818;stroke-width:0.5;stroke-dasharray:5,5;"/></g><g><title>SD.. . FatFs</title><rect x="854.301" y="90.272" width="8" height="547.536" fill="#000" fill-opacity="0"/><line x1="857.801" y1="90.272" x2="857.801" y2="637.808" style="stroke:#181818;stroke-width:0.5;stroke-dasharray:5,5;"/></g><text x="10" y="86.24" fill="#000" font-size="14" textLength="198.155" font-family="'Noto Sans CJK SC'">会话管理 (SessionCoordinator)</text><ellipse cx="112.078" cy="18.5" rx="8" ry="8" fill="#E2E2F0" style="stroke:#181818;stroke-width:0.5;"/><path d="M112.078,26.5 L112.078,53.5 M99.078,34.5 L125.078,34.5 M112.078,53.5 L99.078,68.5 M112.078,53.5 L125.078,68.5" style="stroke:#181818;stroke-width:0.5;" fill="none"/><rect x="308.588" y="55" width="159.319" height="34.272" fill="#E2E2F0" style="stroke:#181818;stroke-width:0.5;" rx="2.5" ry="2.5"/><text x="315.588" y="78.24" fill="#000" font-size="14" textLength="145.319" font-family="'Noto Sans CJK SC'">Reactor或Capture入口</text><rect x="559.746" y="55" width="111.552" height="34.272" fill="#E2E2F0" style="stroke:#181818;stroke-width:0.5;" rx="2.5" ry="2.5"/><text x="566.746" y="78.24" fill="#000" font-size="14" textLength="97.552" font-family="'Noto Sans CJK SC'">Storage Owner</text><rect x="804.349" y="55" width="106.904" height="34.272" fill="#E2E2F0" style="stroke:#181818;stroke-width:0.5;" rx="2.5" ry="2.5"/><text x="811.349" y="78.24" fill="#000" font-size="14" textLength="92.904" font-family="'Noto Sans CJK SC'">SD驱动 / FatFs</text><text x="10" y="654.048" fill="#000" font-size="14" textLength="198.155" font-family="'Noto Sans CJK SC'">会话管理 (SessionCoordinator)</text><ellipse cx="112.078" cy="666.58" rx="8" ry="8" fill="#E2E2F0" style="stroke:#181818;stroke-width:0.5;"/><path d="M112.078,674.58 L112.078,701.58 M99.078,682.58 L125.078,682.58 M112.078,701.58 L99.078,716.58 M112.078,701.58 L125.078,716.58" style="stroke:#181818;stroke-width:0.5;" fill="none"/><rect x="308.588" y="637.808" width="159.319" height="34.272" fill="#E2E2F0" style="stroke:#181818;stroke-width:0.5;" rx="2.5" ry="2.5"/><text x="315.588" y="661.048" fill="#000" font-size="14" textLength="145.319" font-family="'Noto Sans CJK SC'">Reactor或Capture入口</text><rect x="559.746" y="637.808" width="111.552" height="34.272" fill="#E2E2F0" style="stroke:#181818;stroke-width:0.5;" rx="2.5" ry="2.5"/><text x="566.746" y="661.048" fill="#000" font-size="14" textLength="97.552" font-family="'Noto Sans CJK SC'">Storage Owner</text><rect x="804.349" y="637.808" width="106.904" height="34.272" fill="#E2E2F0" style="stroke:#181818;stroke-width:0.5;" rx="2.5" ry="2.5"/><text x="811.349" y="661.048" fill="#000" font-size="14" textLength="92.904" font-family="'Noto Sans CJK SC'">SD驱动 / FatFs</text><path d="M39.313,103.272 L39.313,131.272 L930.313,131.272 L930.313,113.272 L920.313,103.272 L39.313,103.272" style="stroke:#181818;stroke-width:0.5;" fill="#FEFFDD"/><path d="M920.313,103.272 L920.313,113.272 L930.313,113.272 L920.313,103.272" style="stroke:#181818;stroke-width:0.5;" fill="#FEFFDD"/><text x="420.113" y="123.352" fill="#000" font-size="13" textLength="120.653" font-family="'Noto Sans CJK SC'">阶段 1: 停止输入准入</text><line x1="386.248" y1="161.92" x2="376.248" y2="157.92" style="stroke:#181818;stroke-width:1;"/><line x1="386.248" y1="161.92" x2="376.248" y2="165.92" style="stroke:#181818;stroke-width:1;"/><line x1="112.078" y1="161.92" x2="387.248" y2="161.92" style="stroke:#181818;stroke-width:1;"/><text x="119.078" y="156.176" fill="#000" font-size="13" font-weight="700" font-family="'Noto Sans CJK SC'">1</text><text x="130.748" y="156.176" fill="#000" font-size="13" textLength="240.5" font-family="'Noto Sans CJK SC'">请求停止指定业务输入 (STOP_REQUEST)</text><line x1="388.248" y1="194.744" x2="430.248" y2="194.744" style="stroke:#181818;stroke-width:1;"/><line x1="430.248" y1="194.744" x2="430.248" y2="207.744" style="stroke:#181818;stroke-width:1;"/><line x1="388.248" y1="207.744" x2="430.248" y2="207.744" style="stroke:#181818;stroke-width:1;"/><line x1="389.248" y1="207.744" x2="399.248" y2="203.744" style="stroke:#181818;stroke-width:1;"/><line x1="389.248" y1="207.744" x2="399.248" y2="211.744" style="stroke:#181818;stroke-width:1;"/><text x="395.248" y="189" fill="#000" font-size="13" font-weight="700" font-family="'Noto Sans CJK SC'">2</text><text x="406.918" y="189" fill="#000" font-size="13" textLength="201.604" font-family="'Noto Sans CJK SC'">禁止新报文进入，标记 QUIESCING</text><line x1="388.248" y1="240.568" x2="430.248" y2="240.568" style="stroke:#181818;stroke-width:1;"/><line x1="430.248" y1="240.568" x2="430.248" y2="253.568" style="stroke:#181818;stroke-width:1;"/><line x1="388.248" y1="253.568" x2="430.248" y2="253.568" style="stroke:#181818;stroke-width:1;"/><line x1="389.248" y1="253.568" x2="399.248" y2="249.568" style="stroke:#181818;stroke-width:1;"/><line x1="389.248" y1="253.568" x2="399.248" y2="257.568" style="stroke:#181818;stroke-width:1;"/><text x="395.248" y="234.824" fill="#000" font-size="13" font-weight="700" font-family="'Noto Sans CJK SC'">3</text><text x="406.918" y="234.824" fill="#000" font-size="13" textLength="156" font-family="'Noto Sans CJK SC'">等待在途当前分块完成发布</text><line x1="113.078" y1="286.392" x2="123.078" y2="282.392" style="stroke:#181818;stroke-width:1;"/><line x1="113.078" y1="286.392" x2="123.078" y2="290.392" style="stroke:#181818;stroke-width:1;"/><line x1="112.078" y1="286.392" x2="387.248" y2="286.392" style="stroke:#181818;stroke-width:1;stroke-dasharray:2,2;"/><text x="129.078" y="280.648" fill="#000" font-size="13" font-weight="700" font-family="'Noto Sans CJK SC'">4</text><text x="140.748" y="280.648" fill="#000" font-size="13" textLength="205.387" font-family="'Noto Sans CJK SC'">输入已完全静默 (Ingress Quiesced)</text><path d="M39.313,299.392 L39.313,327.392 L930.313,327.392 L930.313,309.392 L920.313,299.392 L39.313,299.392" style="stroke:#181818;stroke-width:0.5;" fill="#FEFFDD"/><path d="M920.313,299.392 L920.313,309.392 L930.313,309.392 L920.313,299.392" style="stroke:#181818;stroke-width:0.5;" fill="#FEFFDD"/><text x="387.613" y="319.472" fill="#000" font-size="13" textLength="185.653" font-family="'Noto Sans CJK SC'">阶段 2: 排空在途缓冲并关停文件</text><line x1="613.522" y1="358.04" x2="603.522" y2="354.04" style="stroke:#181818;stroke-width:1;"/><line x1="613.522" y1="358.04" x2="603.522" y2="362.04" style="stroke:#181818;stroke-width:1;"/><line x1="112.078" y1="358.04" x2="614.522" y2="358.04" style="stroke:#181818;stroke-width:1;"/><text x="119.078" y="352.296" fill="#000" font-size="13" font-weight="700" font-family="'Noto Sans CJK SC'">5</text><text x="130.748" y="352.296" fill="#000" font-size="13" textLength="287.196" font-family="'Noto Sans CJK SC'">通知排空该业务并关闭文件 (DRAIN_AND_CLOSE)</text><line x1="615.522" y1="390.864" x2="657.522" y2="390.864" style="stroke:#181818;stroke-width:1;"/><line x1="657.522" y1="390.864" x2="657.522" y2="403.864" style="stroke:#181818;stroke-width:1;"/><line x1="615.522" y1="403.864" x2="657.522" y2="403.864" style="stroke:#181818;stroke-width:1;"/><line x1="616.522" y1="403.864" x2="626.522" y2="399.864" style="stroke:#181818;stroke-width:1;"/><line x1="616.522" y1="403.864" x2="626.522" y2="407.864" style="stroke:#181818;stroke-width:1;"/><text x="622.522" y="385.12" fill="#000" font-size="13" font-weight="700" font-family="'Noto Sans CJK SC'">6</text><text x="634.192" y="385.12" fill="#000" font-size="13" textLength="195" font-family="'Noto Sans CJK SC'">顺序消费该业务所有剩余已发布块</text><line x1="855.801" y1="436.688" x2="845.801" y2="432.688" style="stroke:#181818;stroke-width:1;"/><line x1="855.801" y1="436.688" x2="845.801" y2="440.688" style="stroke:#181818;stroke-width:1;"/><line x1="615.522" y1="436.688" x2="856.801" y2="436.688" style="stroke:#181818;stroke-width:1;"/><text x="622.522" y="430.944" fill="#000" font-size="13" font-weight="700" font-family="'Noto Sans CJK SC'">7</text><text x="634.192" y="430.944" fill="#000" font-size="13" textLength="206.609" font-family="'Noto Sans CJK SC'">完成最后缓冲区写入并调用 f_sync()</text><line x1="616.522" y1="469.512" x2="626.522" y2="465.512" style="stroke:#181818;stroke-width:1;"/><line x1="616.522" y1="469.512" x2="626.522" y2="473.512" style="stroke:#181818;stroke-width:1;"/><line x1="615.522" y1="469.512" x2="856.801" y2="469.512" style="stroke:#181818;stroke-width:1;stroke-dasharray:2,2;"/><text x="632.522" y="463.768" fill="#000" font-size="13" font-weight="700" font-family="'Noto Sans CJK SC'">8</text><text x="644.192" y="463.768" fill="#000" font-size="13" textLength="180.7" font-family="'Noto Sans CJK SC'">写入成功确认 (或有界超时故障)</text><line x1="855.801" y1="502.336" x2="845.801" y2="498.336" style="stroke:#181818;stroke-width:1;"/><line x1="855.801" y1="502.336" x2="845.801" y2="506.336" style="stroke:#181818;stroke-width:1;"/><line x1="615.522" y1="502.336" x2="856.801" y2="502.336" style="stroke:#181818;stroke-width:1;"/><text x="622.522" y="496.592" fill="#000" font-size="13" font-weight="700" font-family="'Noto Sans CJK SC'">9</text><text x="634.192" y="496.592" fill="#000" font-size="13" textLength="158.678" font-family="'Noto Sans CJK SC'">f_close() 关闭对应文件句柄</text><line x1="113.078" y1="535.16" x2="123.078" y2="531.16" style="stroke:#181818;stroke-width:1;"/><line x1="113.078" y1="535.16" x2="123.078" y2="539.16" style="stroke:#181818;stroke-width:1;"/><line x1="112.078" y1="535.16" x2="614.522" y2="535.16" style="stroke:#181818;stroke-width:1;stroke-dasharray:2,2;"/><text x="129.078" y="529.416" fill="#000" font-size="13" textLength="15.34" font-weight="700" font-family="'Noto Sans CJK SC'">10</text><text x="148.418" y="529.416" fill="#000" font-size="13" textLength="117" font-family="'Noto Sans CJK SC'">资源释放与清理确认</text><path d="M62.578,548.16 L62.578,576.16 L161.578,576.16 L161.578,558.16 L151.578,548.16 L62.578,548.16" style="stroke:#181818;stroke-width:0.5;" fill="#FEFFDD"/><path d="M151.578,548.16 L151.578,558.16 L161.578,558.16 L151.578,548.16" style="stroke:#181818;stroke-width:0.5;" fill="#FEFFDD"/><text x="68.578" y="568.24" fill="#000" font-size="13" textLength="78" font-family="'Noto Sans CJK SC'">状态安全更新</text><line x1="112.078" y1="606.808" x2="154.078" y2="606.808" style="stroke:#181818;stroke-width:1;"/><line x1="154.078" y1="606.808" x2="154.078" y2="619.808" style="stroke:#181818;stroke-width:1;"/><line x1="112.078" y1="619.808" x2="154.078" y2="619.808" style="stroke:#181818;stroke-width:1;"/><line x1="113.078" y1="619.808" x2="123.078" y2="615.808" style="stroke:#181818;stroke-width:1;"/><line x1="113.078" y1="619.808" x2="123.078" y2="623.808" style="stroke:#181818;stroke-width:1;"/><text x="119.078" y="601.064" fill="#000" font-size="13" textLength="15.34" font-weight="700" font-family="'Noto Sans CJK SC'">11</text><text x="138.418" y="601.064" fill="#000" font-size="13" textLength="209.664" font-family="'Noto Sans CJK SC'">标记会话为 STOPPED (或 FAULTED)</text><?plantuml-src ZPHTJzfW5CVl_HGdN44oisoNNfWONXOsXo_LQz91DOtQchPisHrEorkOi8ae275iOy4BYpgjK5_sPNYUjbVx2dlQ1rm4NTQB9gNd_-D__kSybLTuOPsLs3M8SqjiObK9YO8IOTSuy4H4HGI65MJmltm5ZDyp1kHY4uee9DRUS19zZ2cY19xUTTLgrqsjOHPJu6KuMUP5mI-AKfmNM5BXym0hmsjMO9VxGlAd2X_Zrrb10Syyvt9mfkndrvM4n26rYGhVND6i9COJiOTK394G7ioy4pZ9hUt_ya1fm3uwHRaMF8KGguHajph0oojZRgqWAXo8RpbfOF69ymucmDxNiNO1poO0RTJmyLVhTiUnbawHkwliryFuvEITKwApsfVuz0FLu7mQQTLUfufo3Qed2ItCp4RdWtEBGMR1vuBkn4CayyU6moYVu5mJbzFMhmC2-7sTnr_IbdO2SulX8ECFHrxy6tASHRSgghNiP0dTxA3iHvH9eVeUql8uKqI5JwYpEGHm28FcI3-qxyipea1gowvNxAjzy8Q5POdC6kOIF2V7kBZl_-9yFW5u-xDvP517vlKEIfsXhexKdqvavNJlIXz9Tp1jGabMpSCc9LZj9asMokszOoe7Rs1-AXo9JaK2KV_q31EaAGyWGy26WOm2rZFMUVSEYBD9NCkYx57lfk8qxeP4CXlXz7kZMU9Q4XMt-ntb3PIgEBbrTUjaqoorO2aglnTYNch65OxVjq85pb1oXsP3ixJlu2N7WZWnT_EMhk8z7U-gThNcUyp7KZIsAigSrmSq3zJk8gD4Kq659ZxSkgyS6lJ55ZQATZg7IxUzpZRkgEH4KoEFpDPPhvoEanj8ovBLm0VdP5b7flUtc2uk_M3qEWOuHs4s673RXD3KulH2CE3x0m00?></g></svg>