<svg xmlns="http://www.w3.org/2000/svg" xmlns:xlink="http://www.w3.org/1999/xlink" version="1.1" data-diagram-type="DESCRIPTION" style="width:1006px;height:895px;background:#FFFFFF;" width="1006px" height="895px" viewBox="0 0 1006 895" zoomAndPan="magnify" preserveAspectRatio="none" contentStyleType="text/css"><?plantuml 1.2026.8?><defs/><g font-family="sans-serif" lengthAdjust="spacing"><!--cluster MODEM--><g class="cluster" data-qualified-name="MODEM" id="ent0001" data-source-line="5"><path d="M60.5,4 L327.723,4 A3.75,3.75 0 0 1 330.223,6.5 L337.223,30.272 L555.5,30.272 A2.5,2.5 0 0 1 558,32.772 L558,125.5 A2.5,2.5 0 0 1 555.5,128 L60.5,128 A2.5,2.5 0 0 1 58,125.5 L58,6.5 A2.5,2.5 0 0 1 60.5,4" style="stroke:#000;stroke-width:1.5;" fill="none"/><line x1="58" y1="30.272" x2="337.223" y2="30.272" style="stroke:#000;stroke-width:1.5;"/><text x="62" y="22.24" fill="#000" font-size="14" textLength="266.223" font-weight="700" font-family="'Noto Sans CJK SC'">Modem Firmware Domain (IPC Source)</text></g><!--cluster INGRESS--><g class="cluster" data-qualified-name="INGRESS" id="ent0004" data-source-line="9"><path d="M125.5,166 L422.249,166 A3.75,3.75 0 0 1 424.749,168.5 L431.749,192.272 L522.5,192.272 A2.5,2.5 0 0 1 525,194.772 L525,385.5 A2.5,2.5 0 0 1 522.5,388 L125.5,388 A2.5,2.5 0 0 1 123,385.5 L123,168.5 A2.5,2.5 0 0 1 125.5,166" style="stroke:#000;stroke-width:1.5;" fill="none"/><line x1="123" y1="192.272" x2="431.749" y2="192.272" style="stroke:#000;stroke-width:1.5;"/><text x="127" y="184.24" fill="#000" font-size="14" textLength="295.749" font-weight="700" font-family="'Noto Sans CJK SC'">MCU Ingress Domain (Socket Reactor Task)</text></g><!--cluster NETIF--><g class="cluster" data-qualified-name="NETIF" id="ent0008" data-source-line="14"><path d="M686.5,176.5 L986.413,176.5 A3.75,3.75 0 0 1 988.913,179 L995.913,202.772 L995.5,202.772 A2.5,2.5 0 0 1 998,205.272 L998,541.5 A2.5,2.5 0 0 1 995.5,544 L686.5,544 A2.5,2.5 0 0 1 684,541.5 L684,179 A2.5,2.5 0 0 1 686.5,176.5" style="stroke:#000;stroke-width:1.5;" fill="none"/><line x1="684" y1="202.772" x2="995.913" y2="202.772" style="stroke:#000;stroke-width:1.5;"/><text x="688" y="194.74" fill="#000" font-size="14" textLength="298.913" font-weight="700" font-family="'Noto Sans CJK SC'">lwIP Network Domain (Normal MCU Traffic)</text></g><!--cluster SRAM_POOLS--><g class="cluster" data-qualified-name="SRAM_POOLS" id="ent0012" data-source-line="19"><path d="M16.5,426 L350.587,426 A3.75,3.75 0 0 1 353.087,428.5 L360.087,452.272 L665.5,452.272 A2.5,2.5 0 0 1 668,454.772 L668,556.5 A2.5,2.5 0 0 1 665.5,559 L16.5,559 A2.5,2.5 0 0 1 14,556.5 L14,428.5 A2.5,2.5 0 0 1 16.5,426" style="stroke:#000;stroke-width:1.5;" fill="none"/><line x1="14" y1="452.272" x2="360.087" y2="452.272" style="stroke:#000;stroke-width:1.5;"/><text x="18" y="444.24" fill="#000" font-size="14" textLength="333.087" font-weight="700" font-family="'Noto Sans CJK SC'">Static SRAM Pools (SPSC Lock-Free Ring Buffers)</text></g><!--cluster STORAGE_DOMAIN--><g class="cluster" data-qualified-name="STORAGE_DOMAIN" id="ent0016" data-source-line="24"><path d="M202.5,597 L461.113,597 A3.75,3.75 0 0 1 463.613,599.5 L470.613,623.272 L470.5,623.272 A2.5,2.5 0 0 1 473,625.772 L473,718.5 A2.5,2.5 0 0 1 470.5,721 L202.5,721 A2.5,2.5 0 0 1 200,718.5 L200,599.5 A2.5,2.5 0 0 1 202.5,597" style="stroke:#000;stroke-width:1.5;" fill="none"/><line x1="200" y1="623.272" x2="470.613" y2="623.272" style="stroke:#000;stroke-width:1.5;"/><text x="204" y="615.24" fill="#000" font-size="14" textLength="257.613" font-weight="700" font-family="'Noto Sans CJK SC'">Storage Engine (Storage Owner Task)</text></g><!--cluster MEDIA_FS--><g class="cluster" data-qualified-name="MEDIA_FS" id="ent0018" data-source-line="27"><path d="M43.5,738 L296.443,738 A3.75,3.75 0 0 1 298.943,740.5 L305.943,764.272 L625.5,764.272 A2.5,2.5 0 0 1 628,766.772 L628,868.5 A2.5,2.5 0 0 1 625.5,871 L43.5,871 A2.5,2.5 0 0 1 41,868.5 L41,740.5 A2.5,2.5 0 0 1 43.5,738" style="stroke:#000;stroke-width:1.5;" fill="none"/><line x1="41" y1="764.272" x2="305.943" y2="764.272" style="stroke:#000;stroke-width:1.5;"/><text x="45" y="756.24" fill="#000" font-size="14" textLength="251.943" font-weight="700" font-family="'Noto Sans CJK SC'">Persistent Storage (MicroSD / eMMC)</text></g><!--entity modemLog--><g class="entity" data-qualified-name="MODEM.modemLog" id="ent0002" data-source-line="6"><rect x="74" y="51" width="235.697" height="60.544" fill="#F1F1F1" style="stroke:#181818;stroke-width:0.5;" rx="2.5" ry="2.5"/><text x="84" y="77.24" fill="#000" font-size="14" textLength="174.733" font-family="'Noto Sans CJK SC'">ModemLog Stream Service</text><text x="84" y="97.512" fill="#000" font-size="14" textLength="215.697" font-family="'Noto Sans CJK SC'">(Continuous 1 Mbps Throughput)</text></g><!--entity modemChr--><g class="entity" data-qualified-name="MODEM.modemChr" id="ent0003" data-source-line="7"><rect x="328.5" y="51" width="213.367" height="60.544" fill="#F1F1F1" style="stroke:#181818;stroke-width:0.5;" rx="2.5" ry="2.5"/><text x="338.5" y="77.24" fill="#000" font-size="14" textLength="171.359" font-family="'Noto Sans CJK SC'">Modem CHR Event Service</text><text x="338.5" y="97.512" fill="#000" font-size="14" textLength="193.367" font-family="'Noto Sans CJK SC'">(Critical Crash &amp; State Events)</text></g><!--entity logSock--><g class="entity" data-qualified-name="INGRESS.logSock" id="ent0005" data-source-line="10"><rect x="139" y="213" width="165.599" height="60.544" fill="#F1F1F1" style="stroke:#181818;stroke-width:0.5;" rx="2.5" ry="2.5"/><text x="149" y="239.24" fill="#000" font-size="14" textLength="144.017" font-family="'Noto Sans CJK SC'">ModemLog TCP Client</text><text x="149" y="259.512" fill="#000" font-size="14" textLength="145.599" font-family="'Noto Sans CJK SC'">(Non-blocking Socket)</text></g><!--entity chrSock--><g class="entity" data-qualified-name="INGRESS.chrSock" id="ent0006" data-source-line="11"><rect x="323" y="213" width="186.487" height="60.544" fill="#F1F1F1" style="stroke:#181818;stroke-width:0.5;" rx="2.5" ry="2.5"/><text x="333" y="239.24" fill="#000" font-size="14" textLength="98.798" font-family="'Noto Sans CJK SC'">CHR TCP Client</text><text x="333" y="259.512" fill="#000" font-size="14" textLength="166.487" font-family="'Noto Sans CJK SC'">(Reliable In-order Socket)</text></g><!--entity reactor--><g class="entity" data-qualified-name="INGRESS.reactor" id="ent0007" data-source-line="12"><rect x="162.5" y="311" width="271.299" height="60.544" fill="#F1F1F1" style="stroke:#181818;stroke-width:0.5;" rx="2.5" ry="2.5"/><text x="172.5" y="337.24" fill="#000" font-size="14" textLength="167.943" font-family="'Noto Sans CJK SC'">Socket Reactor Scheduler</text><text x="172.5" y="357.512" fill="#000" font-size="14" textLength="251.299" font-family="'Noto Sans CJK SC'">(select multiplexing / dynamic budget)</text></g><!--entity netTraffic--><g class="entity" data-qualified-name="NETIF.netTraffic" id="ent0009" data-source-line="15"><rect x="709.5" y="223.5" width="230.713" height="40.272" fill="#F1F1F1" style="stroke:#181818;stroke-width:0.5;" rx="2.5" ry="2.5"/><text x="719.5" y="249.74" fill="#000" font-size="14" textLength="210.713" font-family="'Noto Sans CJK SC'">Normal lwIP RX / TX Packet Flow</text></g><!--entity tap--><g class="entity" data-qualified-name="NETIF.tap" id="ent0010" data-source-line="16"><rect x="732" y="311" width="185.689" height="60.544" fill="#F1F1F1" style="stroke:#181818;stroke-width:0.5;" rx="2.5" ry="2.5"/><text x="742" y="337.24" fill="#000" font-size="14" textLength="77.406" font-family="'Noto Sans CJK SC'">CaptureTap</text><text x="742" y="357.512" fill="#000" font-size="14" textLength="165.689" font-family="'Noto Sans CJK SC'">Passive Observation Gate</text></g><!--entity netStack--><g class="entity" data-qualified-name="NETIF.netStack" id="ent0011" data-source-line="17"><rect x="700.5" y="488" width="268.513" height="40.272" fill="#F1F1F1" style="stroke:#181818;stroke-width:0.5;" rx="2.5" ry="2.5"/><text x="710.5" y="514.24" fill="#000" font-size="14" textLength="248.513" font-family="'Noto Sans CJK SC'">Normal lwIP Protocol Stack Continues</text></g><!--entity logRing--><g class="entity" data-qualified-name="SRAM_POOLS.logRing" id="ent0013" data-source-line="20"><path d="M30.5,483 C30.5,473 128.168,473 128.168,473 C128.168,473 225.835,473 225.835,483 L225.835,532.544 C225.835,542.544 128.168,542.544 128.168,542.544 C128.168,542.544 30.5,542.544 30.5,532.544 L30.5,483" style="stroke:#181818;stroke-width:0.5;" fill="#F1F1F1"/><path d="M30.5,483 C30.5,493 128.168,493 128.168,493 C128.168,493 225.835,493 225.835,483" style="stroke:#181818;stroke-width:0.5;" fill="none"/><text x="40.5" y="513.24" fill="#000" font-size="14" textLength="175.335" font-family="'Noto Sans CJK SC'">ModemLog Dedicated Ring</text><text x="40.5" y="533.512" fill="#000" font-size="14" textLength="135.813" font-family="'Noto Sans CJK SC'">(Fixed Chunk Queue)</text></g><!--entity chrRing--><g class="entity" data-qualified-name="SRAM_POOLS.chrRing" id="ent0014" data-source-line="21"><path d="M243.5,483 C243.5,473 335.918,473 335.918,473 C335.918,473 428.335,473 428.335,483 L428.335,532.544 C428.335,542.544 335.918,542.544 335.918,542.544 C335.918,542.544 243.5,542.544 243.5,532.544 L243.5,483" style="stroke:#181818;stroke-width:0.5;" fill="#F1F1F1"/><path d="M243.5,483 C243.5,493 335.918,493 335.918,493 C335.918,493 428.335,493 428.335,483" style="stroke:#181818;stroke-width:0.5;" fill="none"/><text x="253.5" y="513.24" fill="#000" font-size="14" textLength="130.115" font-family="'Noto Sans CJK SC'">CHR Dedicated Ring</text><text x="253.5" y="533.512" fill="#000" font-size="14" textLength="164.835" font-family="'Noto Sans CJK SC'">(Framed Message Queue)</text></g><!--entity capRing--><g class="entity" data-qualified-name="SRAM_POOLS.capRing" id="ent0015" data-source-line="22"><path d="M446.5,483 C446.5,473 549.222,473 549.222,473 C549.222,473 651.943,473 651.943,483 L651.943,532.544 C651.943,542.544 549.222,542.544 549.222,542.544 C549.222,542.544 446.5,542.544 446.5,532.544 L446.5,483" style="stroke:#181818;stroke-width:0.5;" fill="#F1F1F1"/><path d="M446.5,483 C446.5,493 549.222,493 549.222,493 C549.222,493 651.943,493 651.943,483" style="stroke:#181818;stroke-width:0.5;" fill="none"/><text x="456.5" y="513.24" fill="#000" font-size="14" textLength="150.163" font-family="'Noto Sans CJK SC'">Capture Snapshot Ring</text><text x="456.5" y="533.512" fill="#000" font-size="14" textLength="185.443" font-family="'Noto Sans CJK SC'">(Dual-buffered Private Slots)</text></g><!--entity storageExec--><g class="entity" data-qualified-name="STORAGE_DOMAIN.storageExec" id="ent0017" data-source-line="25"><rect x="218" y="644" width="235.851" height="60.544" fill="#F1F1F1" style="stroke:#181818;stroke-width:0.5;" rx="2.5" ry="2.5"/><text x="228" y="670.24" fill="#000" font-size="14" textLength="142.379" font-family="'Noto Sans CJK SC'">StorageOwner Engine</text><text x="228" y="690.512" fill="#000" font-size="14" textLength="215.851" font-family="'Noto Sans CJK SC'">(Sole Owner of FatFs / SDIO DMA)</text></g><!--entity fileLog--><g class="entity" data-qualified-name="MEDIA_FS.fileLog" id="ent0019" data-source-line="28"><path d="M57,795 C57,785 146.191,785 146.191,785 C146.191,785 235.381,785 235.381,795 L235.381,844.544 C235.381,854.544 146.191,854.544 146.191,854.544 C146.191,854.544 57,854.544 57,844.544 L57,795" style="stroke:#181818;stroke-width:0.5;" fill="#F1F1F1"/><path d="M57,795 C57,805 146.191,805 146.191,805 C146.191,805 235.381,805 235.381,795" style="stroke:#181818;stroke-width:0.5;" fill="none"/><text x="67" y="825.24" fill="#000" font-size="14" textLength="106.232" font-family="'Noto Sans CJK SC'">ModemLog Files</text><text x="67" y="845.512" fill="#000" font-size="14" textLength="158.381" font-family="'Noto Sans CJK SC'">(*.log circular overwrite)</text></g><!--entity fileChr--><g class="entity" data-qualified-name="MEDIA_FS.fileChr" id="ent0020" data-source-line="29"><path d="M253.5,795 C253.5,785 336.153,785 336.153,785 C336.153,785 418.805,785 418.805,795 L418.805,844.544 C418.805,854.544 336.153,854.544 336.153,854.544 C336.153,854.544 253.5,854.544 253.5,844.544 L253.5,795" style="stroke:#181818;stroke-width:0.5;" fill="#F1F1F1"/><path d="M253.5,795 C253.5,805 336.153,805 336.153,805 C336.153,805 418.805,805 418.805,795" style="stroke:#181818;stroke-width:0.5;" fill="none"/><text x="263.5" y="825.24" fill="#000" font-size="14" textLength="61.012" font-family="'Noto Sans CJK SC'">CHR Files</text><text x="263.5" y="845.512" fill="#000" font-size="14" textLength="145.305" font-family="'Noto Sans CJK SC'">(*.chr append archive)</text></g><!--entity filePcap--><g class="entity" data-qualified-name="MEDIA_FS.filePcap" id="ent0021" data-source-line="30"><path d="M436.5,795 C436.5,785 524.039,785 524.039,785 C524.039,785 611.577,785 611.577,795 L611.577,844.544 C611.577,854.544 524.039,854.544 524.039,854.544 C524.039,854.544 436.5,854.544 436.5,844.544 L436.5,795" style="stroke:#181818;stroke-width:0.5;" fill="#F1F1F1"/><path d="M436.5,795 C436.5,805 524.039,805 524.039,805 C524.039,805 611.577,805 611.577,795" style="stroke:#181818;stroke-width:0.5;" fill="none"/><text x="446.5" y="825.24" fill="#000" font-size="14" textLength="68.166" font-family="'Noto Sans CJK SC'">PCAP Files</text><text x="446.5" y="845.512" fill="#000" font-size="14" textLength="155.077" font-family="'Noto Sans CJK SC'">(*.pcap capture stream)</text></g><g class="link" data-entity-1="ent0005" data-entity-2="ent0007" id="lnk22" data-link-type="dependency"><polygon points="274.524,310.846,272.074,301.307,271.42,306.926,265.801,306.272,274.524,310.846" fill="#181818" style="stroke:#181818;stroke-width:1;stroke-linejoin:miter;stroke-miterlimit:10;"/><path d="M245.423,274.086 C254.669,285.766 262.169,295.24 271.42,306.926" style="stroke:#181818;stroke-width:1;" fill="none"/></g><g class="link" data-entity-1="ent0006" data-entity-2="ent0007" id="lnk23" data-link-type="dependency"><polygon points="334.45,310.846,343.956,308.269,338.328,307.691,338.907,302.063,334.45,310.846" fill="#181818" style="stroke:#181818;stroke-width:1;stroke-linejoin:miter;stroke-miterlimit:10;"/><path d="M379.633,274.086 C365.277,285.766 352.692,296.004 338.328,307.691" style="stroke:#181818;stroke-width:1;" fill="none"/></g><g class="link" data-entity-1="ent0009" data-entity-2="ent0010" id="lnk24" data-link-type="dependency"><polygon points="825,310.885,829,301.885,825,305.885,821,301.885,825,310.885" fill="#181818" style="stroke:#181818;stroke-width:1;stroke-linejoin:miter;stroke-miterlimit:10;"/><path d="M825,263.927 C825,277.405 825,290.608 825,305.885" style="stroke:#181818;stroke-width:1;" fill="none"/></g><g class="link" data-entity-1="ent0010" data-entity-2="ent0011" id="lnk25" data-link-type="dependency"><polygon points="833.828,487.718,837.274,478.492,833.524,482.727,829.289,478.977,833.828,487.718" fill="#181818" style="stroke:#181818;stroke-width:1;stroke-linejoin:miter;stroke-miterlimit:10;"/><path d="M826.811,372.29 C828.848,405.806 831.795,454.278 833.524,482.727" style="stroke:#181818;stroke-width:1;" fill="none"/><text x="831" y="413.08" fill="#000" font-size="13" textLength="107.38" font-family="'Noto Sans CJK SC'">Zero-latency pass</text></g><g class="link" data-entity-1="ent0002" data-entity-2="ent0005" id="lnk26" data-link-type="dependency"><polygon points="216.457,212.939,218.73,203.356,215.536,208.025,210.867,204.831,216.457,212.939" fill="#181818" style="stroke:#181818;stroke-width:1;stroke-linejoin:miter;stroke-miterlimit:10;"/><path d="M197.572,112.22 C202.961,140.958 210.158,179.34 215.536,208.025" style="stroke:#181818;stroke-width:1;" fill="none"/><text x="209" y="153.08" fill="#000" font-size="13" textLength="76.206" font-family="'Noto Sans CJK SC'">IPC TCP Link</text></g><g class="link" data-entity-1="ent0003" data-entity-2="ent0006" id="lnk27" data-link-type="dependency"><polygon points="419.51,212.939,424.544,204.474,420.1,207.974,416.6,203.53,419.51,212.939" fill="#181818" style="stroke:#181818;stroke-width:1;stroke-linejoin:miter;stroke-miterlimit:10;"/><path d="M431.471,112.22 C428.058,140.958 423.506,179.29 420.1,207.974" style="stroke:#181818;stroke-width:1;" fill="none"/><text x="431" y="153.08" fill="#000" font-size="13" textLength="76.206" font-family="'Noto Sans CJK SC'">IPC TCP Link</text></g><g class="link" data-entity-1="ent0007" data-entity-2="ent0013" id="lnk28" data-link-type="dependency"><polygon points="127.836,472.855,132.441,464.149,128.177,467.867,124.46,463.603,127.836,472.855" fill="#181818" style="stroke:#181818;stroke-width:1;stroke-linejoin:miter;stroke-miterlimit:10;"/><path d="M184.055,372.046 C172.82,378.515 162.466,386.398 154,396 C135.479,417.008 129.83,443.716 128.177,467.867" style="stroke:#181818;stroke-width:1;" fill="none"/><text x="156" y="413.08" fill="#000" font-size="13" textLength="150.384" font-family="'Noto Sans CJK SC'">Zero-copy chunk publish</text></g><g class="link" data-entity-1="ent0007" data-entity-2="ent0014" id="lnk29" data-link-type="dependency"><polygon points="328.12,472.886,329.991,463.216,326.994,468.014,322.196,465.017,328.12,472.886" fill="#181818" style="stroke:#181818;stroke-width:1;stroke-linejoin:miter;stroke-miterlimit:10;"/><path d="M304.882,372.29 C311.426,400.621 320.138,438.334 326.994,468.014" style="stroke:#181818;stroke-width:1;" fill="none"/><text x="317" y="413.08" fill="#000" font-size="13" textLength="152.191" font-family="'Noto Sans CJK SC'">Structured frame publish</text></g><g class="link" data-entity-1="ent0010" data-entity-2="ent0015" id="lnk30" data-link-type="dependency"><polygon points="572.887,472.909,581.539,468.203,575.93,468.942,575.192,463.333,572.887,472.909" fill="#181818" style="stroke:#181818;stroke-width:1;stroke-linejoin:miter;stroke-miterlimit:10;"/><path d="M731.774,361.679 C704.762,369.731 676.085,380.855 652,396 C620.175,416.012 594.81,444.335 575.93,468.942" style="stroke:#181818;stroke-width:1;stroke-dasharray:7,7;" fill="none"/><text x="654" y="413.08" fill="#000" font-size="13" textLength="168.519" font-family="'Noto Sans CJK SC'">Best-effort copy (if slot free)</text></g><g class="link" data-entity-1="ent0013" data-entity-2="ent0017" id="lnk31" data-link-type="dependency"><polygon points="250.795,643.974,244.259,636.607,246.244,641.904,240.947,643.889,250.795,643.974" fill="#181818" style="stroke:#181818;stroke-width:1;stroke-linejoin:miter;stroke-miterlimit:10;"/><path d="M138.92,543.18 C145.2,558.643 154.39,576.263 167,589 C190.309,612.545 216.981,628.594 246.244,641.904" style="stroke:#181818;stroke-width:1;" fill="none"/><text x="169" y="584.08" fill="#000" font-size="13" textLength="161.772" font-family="'Noto Sans CJK SC'">Sequential batch consume</text></g><g class="link" data-entity-1="ent0014" data-entity-2="ent0017" id="lnk32" data-link-type="dependency"><polygon points="336,643.871,340,634.871,336,638.871,332,634.871,336,643.871" fill="#181818" style="stroke:#181818;stroke-width:1;stroke-linejoin:miter;stroke-miterlimit:10;"/><path d="M336,543.085 C336,572.822 336,610.531 336,638.871" style="stroke:#181818;stroke-width:1;" fill="none"/><text x="338" y="584.08" fill="#000" font-size="13" textLength="148.122" font-family="'Noto Sans CJK SC'">Sequential consume ack</text></g><g class="link" data-entity-1="ent0015" data-entity-2="ent0017" id="lnk33" data-link-type="dependency"><polygon points="406.361,643.912,416.202,643.516,410.845,641.699,412.662,636.342,406.361,643.912" fill="#181818" style="stroke:#181818;stroke-width:1;stroke-linejoin:miter;stroke-miterlimit:10;"/><path d="M529.543,543.249 C519.686,558.545 506.691,576.008 492,589 C466.85,611.241 439.319,627.648 410.845,641.699" style="stroke:#181818;stroke-width:1;" fill="none"/><text x="515" y="584.08" fill="#000" font-size="13" textLength="120.757" font-family="'Noto Sans CJK SC'">Asynchronous drain</text></g><g class="link" data-entity-1="ent0017" data-entity-2="ent0019" id="lnk34" data-link-type="dependency"><polygon points="185.842,784.632,195.305,781.9,189.669,781.414,190.156,775.778,185.842,784.632" fill="#181818" style="stroke:#181818;stroke-width:1;stroke-linejoin:miter;stroke-miterlimit:10;"/><path d="M290.485,705.187 C275.471,715.304 258.827,726.875 244,738 C224.402,752.705 207.202,766.668 189.669,781.414" style="stroke:#181818;stroke-width:1;" fill="none"/></g><g class="link" data-entity-1="ent0017" data-entity-2="ent0020" id="lnk35" data-link-type="dependency"><polygon points="336,784.768,340,775.768,336,779.768,332,775.768,336,784.768" fill="#181818" style="stroke:#181818;stroke-width:1;stroke-linejoin:miter;stroke-miterlimit:10;"/><path d="M336,705.233 C336,728.384 336,755.545 336,779.768" style="stroke:#181818;stroke-width:1;" fill="none"/></g><g class="link" data-entity-1="ent0017" data-entity-2="ent0021" id="lnk36" data-link-type="dependency"><polygon points="484.571,784.641,480.302,775.765,480.761,781.404,475.122,781.862,484.571,784.641" fill="#181818" style="stroke:#181818;stroke-width:1;stroke-linejoin:miter;stroke-miterlimit:10;"/><path d="M381.026,705.197 C395.877,715.314 412.339,726.883 427,738 C446.405,752.715 463.408,766.66 480.761,781.404" style="stroke:#181818;stroke-width:1;" fill="none"/></g><?plantuml-src VLLDR-Cs4BthLmnoAB85dABNFIpWbQpKRMIhbWiiYWK2cXfPX2bIvOSTezZ_tg4-7Db9UZ1WKVFU3D-y6Tc3K2qph84IA-QbIxLoAzOWtAsqqr0mPI7-_Gyeuhke5YM2TMXGktEBaRs0RSrAVH9g3nMJ5gEePVp0ziIIwH8RI8LfJimW9BfXGi7zCe-XqDvm_7G7p4AsJXOP_1i16EIEgRqSiKzw3uKpI5aAD4V1yRkwZwbAeRps5dw5RDTQsDP6-ttTUjSJDWFs7KQ8Vzl0ueZAJHcDS88p2R5XjeQVA2Tps8VP2MLSc-Z7v7hnNx1KUuFMNkvMQ7v01njat6a3MsOFFS5ozRXP5CM7rzp6ESHIK4OgQANLR2U9AgZQK_OiKk_3upL7kD8LV8DIi1szMggPDYMQAmvUcxSSDtKNlCRIIpJ4Pb5I73Ha4D5AV0ar_GBbMR56SDZvSZyocnuzrKYUbZciq9sqELn4McdJaDf1lwrXLILuZryjjilqLg4Xk2FQVAFCss-GiwxQLEfJ1rJe1g8RPLZhlC4jQx-hd5ahZWZhdQN6CoUqWaTgSqVWMFjnrjpGD70jWotu0GR_eHrJTyVJImVxa3J5Pfv1hhMqv8kyYE69H9wb1X4sGSIllghG30OBmS_vUltKMwHaZksOdJeamP9Cwh3iqDIOLBpGGrnxTO0_FNgyU2G4N944Yxp5q_JIKqR-3MLFACWYRobwBQ5GhBMrTYDBufcSxRgh45bkn37CJY7rE3gSjHtPbK3QX3yBjHSAIPtXUNrIE1sQOhlUp1yNpyawcozNjyuOK3sefw9w2Yr78br1obngoJH5ibn3airxNjiZ5o_8fsNbr0r1EouiXw6Y-qnmeuk4A33Buc5XBPBb_3dzi5Efa6Yfb9yVg1V0XU5UCYhdYEP4gsOGkQAeVabTz-aLJMq0rhQeIc26r-JULsJOHLDa7i_p2RGbrOFoNSjijq9ViJcze7j7mpQ1sUpBPNQ7xN1rzZfUtN4O5lfr_qVxmsVu6usUIMg-ucTeQTgYSGztaMEopn3sVzXNJq8Ted6nTZ5ZyfkOeOwHfXkU8H_NxPbWOGHQlvF2rbVHWv4fcZuZdWSrIgY2xo_XuIOF3rz6crBeLxHkXbMbZOEE_rvKOCdGX4Jy58qbX0GJ9uKa-8ydzmZQ73lcU4rmPNs3qLZ7_qA6O0ZRPApcBM1kpuhej0eVmDBGGesc0G4mEkkzy-2Rzyw39_u3?></g></svg>