<svg xmlns="http://www.w3.org/2000/svg" xmlns:xlink="http://www.w3.org/1999/xlink" version="1.1" data-diagram-type="STATE" style="width:635px;height:521px;background:#FFFFFF;" width="635px" height="521px" viewBox="0 0 635 521" zoomAndPan="magnify" preserveAspectRatio="none" contentStyleType="text/css"><?plantuml 1.2026.8?><defs/><g font-family="sans-serif" lengthAdjust="spacing"><rect x="166.057" y="73" width="50" height="40" fill="#F1F1F1" style="stroke:#181818;stroke-width:0.5;" rx="12.5" ry="12.5"/><text x="174.502" y="99.104" fill="#000" font-size="14" textLength="33.11" font-family="'Noto Sans CJK SC'">FREE</text><rect x="74.557" y="171" width="60.904" height="40" fill="#F1F1F1" style="stroke:#181818;stroke-width:0.5;" rx="12.5" ry="12.5"/><text x="79.557" y="197.104" fill="#000" font-size="14" textLength="50.904" font-family="'Noto Sans CJK SC'">FILLING</text><rect x="78.557" y="269" width="52.714" height="40" fill="#F1F1F1" style="stroke:#181818;stroke-width:0.5;" rx="12.5" ry="12.5"/><text x="83.557" y="295.104" fill="#000" font-size="14" textLength="42.714" font-family="'Noto Sans CJK SC'">READY</text><rect x="211.557" y="367" width="69.15" height="40" fill="#F1F1F1" style="stroke:#181818;stroke-width:0.5;" rx="12.5" ry="12.5"/><text x="216.557" y="393.104" fill="#000" font-size="14" textLength="59.15" font-family="'Noto Sans CJK SC'">READING</text><rect x="332.557" y="465" width="98.802" height="40" fill="#F1F1F1" style="stroke:#181818;stroke-width:0.5;" rx="12.5" ry="12.5"/><text x="337.557" y="491.104" fill="#000" font-size="14" textLength="88.802" font-family="'Noto Sans CJK SC'">ERROR_HELD</text><g class="start_entity" data-qualified-name=".start." id="ent0006" data-source-line="11"><ellipse cx="191.057" cy="22" rx="10" ry="10" fill="#222" style="stroke:#222;stroke-width:1;"/></g><g class="link" data-entity-1="ent0006" data-entity-2="ent0001" id="lnk7" data-link-type="dependency"><polygon points="191.057,72.784,195.057,63.784,191.057,67.784,187.057,63.784,191.057,72.784" fill="#181818" style="stroke:#181818;stroke-width:1;stroke-linejoin:miter;stroke-miterlimit:10;"/><path d="M191.057,36.064 C191.057,46.025 191.057,55.884 191.057,67.784" style="stroke:#181818;stroke-width:1;" fill="none"/></g><g class="link" data-entity-1="ent0001" data-entity-2="ent0002" id="lnk8" data-link-type="dependency"><polygon points="74.497,182.181,67.039,175.748,69.711,180.734,64.725,183.406,74.497,182.181" fill="#181818" style="stroke:#181818;stroke-width:1;stroke-linejoin:miter;stroke-miterlimit:10;"/><path d="M165.95,95.635 C122.752,99.03 37.243,108.487 19.057,131 C0,154.593 37.912,171.124 69.711,180.734" style="stroke:#181818;stroke-width:1;" fill="none"/><text x="21.057" y="148.08" fill="#000" font-size="13" textLength="91" font-family="'Noto Sans CJK SC'">唯一生产者预约</text></g><g class="link" data-entity-1="ent0002" data-entity-2="ent0003" id="lnk9" data-link-type="dependency"><polygon points="105.057,268.929,109.057,259.929,105.057,263.929,101.057,259.929,105.057,268.929" fill="#181818" style="stroke:#181818;stroke-width:1;stroke-linejoin:miter;stroke-miterlimit:10;"/><path d="M105.057,211.427 C105.057,228.192 105.057,247.269 105.057,263.929" style="stroke:#181818;stroke-width:1;" fill="none"/><text x="107.057" y="246.08" fill="#000" font-size="13" textLength="69.745" font-family="'Noto Sans CJK SC'">release发布</text></g><g class="link" data-entity-1="ent0002" data-entity-2="ent0001" id="lnk10" data-link-type="dependency"><polygon points="166.02,107.659,156.274,109.078,161.791,110.327,160.542,115.844,166.02,107.659" fill="#181818" style="stroke:#181818;stroke-width:1;stroke-linejoin:miter;stroke-miterlimit:10;"/><path d="M112.688,170.749 C118.202,158.454 126.525,142.685 137.057,131 C145.274,121.883 151.94,116.541 161.791,110.327" style="stroke:#181818;stroke-width:1;" fill="none"/><text x="139.057" y="148.08" fill="#000" font-size="13" textLength="91" font-family="'Noto Sans CJK SC'">取消未发布快照</text></g><g class="link" data-entity-1="ent0003" data-entity-2="ent0004" id="lnk11" data-link-type="dependency"><polygon points="211.421,381.636,203.099,376.367,206.474,380.907,201.934,384.282,211.421,381.636" fill="#181818" style="stroke:#181818;stroke-width:1;stroke-linejoin:miter;stroke-miterlimit:10;"/><path d="M99.893,309.233 C97.723,321.832 97.4,337.953 106.057,349 C118.967,365.474 169.358,375.441 206.474,380.907" style="stroke:#181818;stroke-width:1;" fill="none"/><text x="108.057" y="344.08" fill="#000" font-size="13" textLength="122.057" font-family="'Noto Sans CJK SC'">Storage acquire取得</text></g><g class="link" data-entity-1="ent0004" data-entity-2="ent0001" id="lnk12" data-link-type="dependency"><polygon points="216.154,111.054,220.226,120.021,219.892,114.374,225.539,114.04,216.154,111.054" fill="#181818" style="stroke:#181818;stroke-width:1;stroke-linejoin:miter;stroke-miterlimit:10;"/><path d="M245.841,366.693 C245.099,310.894 242.117,152.053 232.057,131 C228.42,123.387 226.176,119.956 219.892,114.374" style="stroke:#181818;stroke-width:1;" fill="none"/><text x="245.057" y="246.08" fill="#000" font-size="13" textLength="216.424" font-family="'Noto Sans CJK SC'">同步消费完成或复制至Storage私有区</text></g><g class="link" data-entity-1="ent0004" data-entity-2="ent0005" id="lnk13" data-link-type="dependency"><polygon points="348.072,464.839,342.391,456.794,343.778,462.278,338.294,463.665,348.072,464.839" fill="#181818" style="stroke:#181818;stroke-width:1;stroke-linejoin:miter;stroke-miterlimit:10;"/><path d="M268.447,407.157 C282.819,419.122 302.09,434.561 320.057,447 C328.92,453.136 334.531,456.765 343.778,462.278" style="stroke:#181818;stroke-width:1;" fill="none"/><text x="322.057" y="442.08" fill="#000" font-size="13" textLength="143.455" font-family="'Noto Sans CJK SC'">IO失败且所有权尚未解除</text></g><g class="link" data-entity-1="ent0005" data-entity-2="ent0001" id="lnk14" data-link-type="dependency"><polygon points="216.286,96.853,224.73,101.921,221.248,97.463,225.706,93.981,216.286,96.853" fill="#181818" style="stroke:#181818;stroke-width:1;stroke-linejoin:miter;stroke-miterlimit:10;"/><path d="M431.647,471.333 C444.793,465.806 457.867,457.987 467.057,447 C484.349,426.328 481.057,414.95 481.057,388 C481.057,190 481.057,190 481.057,190 C481.057,134.447 291.803,106.136 221.248,97.463" style="stroke:#181818;stroke-width:1;" fill="none"/><text x="483.057" y="295.08" fill="#000" font-size="13" textLength="144.404" font-family="'Noto Sans CJK SC'">确认DMA停止后显式清理</text></g><?plantuml-src LP3VIW915CRlvoa6BmDVe8j0T2tB5DQhY8WXHrtINTjPYUuKinGi3SJ-O4Is9XHQaOX9sCiui-jRDEww_haPpZdVTtxVOSYn9AUHYb8mYcCeazJyYgo5K0f3LqZH51X1Ce7UxHqOyRf0GefYY5DfxOoxoP4gfJL9aG6PCqW2HPLJIOx364eI303HaCPHVb4GN10HE2tcmq0m60XjsdExTYHHyFZsBC6gbiVEngns944Km-BXbX3qMUgY1M1_xG2wtHjszlInEpiHhaDQ-nWFiaRjQJniczd2f7bk35-1eq-zrX7SgU8aHWJJoWqTv5SS5fQZAdNMBxB6cssXV-z6eGtiTGTaXqOqHKLn3D7HIKPIER9EHxV0qPUHrJBhj3ZLxFtGRfaLgwnOf_eLBVRDo-yPncZdMAD4oyCLmk8JE2SGflgNsMkD1pLMod8tUypJpmT-gzb-cTphOCcz56yyTyskxjlrq5o3TPgqUitkHlItmWO5ethn3m00?></g></svg>