<svg xmlns="http://www.w3.org/2000/svg" xmlns:xlink="http://www.w3.org/1999/xlink" version="1.1" data-diagram-type="DESCRIPTION" style="width:246px;height:474px;background:#FFFFFF;" width="246px" height="474px" viewBox="0 0 246 474" zoomAndPan="magnify" preserveAspectRatio="none" contentStyleType="text/css"><?plantuml 1.2026.8?><defs/><g font-family="sans-serif" lengthAdjust="spacing"><!--entity APP--><g class="entity" data-qualified-name="APP" id="ent0001" data-source-line="5"><rect x="66" y="12" width="78.394" height="40.272" fill="#F1F1F1" style="stroke:#181818;stroke-width:0.5;" rx="2.5" ry="2.5"/><text x="76" y="38.24" fill="#000" font-size="14" textLength="58.394" font-family="'Noto Sans CJK SC'">MCU应用</text></g><!--entity API--><g class="entity" data-qualified-name="API" id="ent0002" data-source-line="6"><rect x="45" y="89" width="119.652" height="40.272" fill="#F1F1F1" style="stroke:#181818;stroke-width:0.5;" rx="2.5" ry="2.5"/><text x="55" y="115.24" fill="#000" font-size="14" textLength="99.652" font-family="'Noto Sans CJK SC'">BSD Socket API</text></g><!--entity TCP--><g class="entity" data-qualified-name="TCP" id="ent0003" data-source-line="7"><rect x="57" y="166" width="95.936" height="40.272" fill="#F1F1F1" style="stroke:#181818;stroke-width:0.5;" rx="2.5" ry="2.5"/><text x="67" y="192.24" fill="#000" font-size="14" textLength="75.936" font-family="'Noto Sans CJK SC'">lwIP TCP/IP</text></g><!--entity R--><g class="entity" data-qualified-name="R" id="ent0004" data-source-line="8"><rect x="67" y="243" width="76" height="40.272" fill="#F1F1F1" style="stroke:#181818;stroke-width:0.5;" rx="2.5" ry="2.5"/><text x="77" y="269.24" fill="#000" font-size="14" textLength="56" font-family="'Noto Sans CJK SC'">路由策略</text></g><!--entity IPC--><g class="entity" data-qualified-name="IPC" id="ent0005" data-source-line="9"><rect x="26.5" y="341" width="47.44" height="40.272" fill="#F1F1F1" style="stroke:#181818;stroke-width:0.5;" rx="2.5" ry="2.5"/><text x="36.5" y="367.24" fill="#000" font-size="14" textLength="27.44" font-family="'Noto Sans CJK SC'">ipc0</text></g><!--entity WAN--><g class="entity" data-qualified-name="WAN" id="ent0006" data-source-line="10"><rect x="110.5" y="341" width="114.556" height="40.272" fill="#F1F1F1" style="stroke:#181818;stroke-width:0.5;" rx="2.5" ry="2.5"/><text x="120.5" y="367.24" fill="#000" font-size="14" textLength="94.556" font-family="'Noto Sans CJK SC'">wan0 默认路由</text></g><!--entity CH0--><g class="entity" data-qualified-name="CH0" id="ent0007" data-source-line="11"><rect x="6" y="418" width="83.77" height="40.272" fill="#F1F1F1" style="stroke:#181818;stroke-width:0.5;" rx="2.5" ry="2.5"/><text x="16" y="444.24" fill="#000" font-size="14" textLength="63.77" font-family="'Noto Sans CJK SC'">核间通道0</text></g><!--entity CH1--><g class="entity" data-qualified-name="CH1" id="ent0008" data-source-line="12"><rect x="108" y="418" width="122.116" height="40.272" fill="#F1F1F1" style="stroke:#181818;stroke-width:0.5;" rx="2.5" ry="2.5"/><text x="118" y="444.24" fill="#000" font-size="14" textLength="102.116" font-family="'Noto Sans CJK SC'">核间通道1 / PPP</text></g><g class="link" data-entity-1="ent0001" data-entity-2="ent0002" id="lnk9" data-link-type="dependency"><polygon points="105,88.751,109,79.751,105,83.751,101,79.751,105,88.751" fill="#181818" style="stroke:#181818;stroke-width:1;stroke-linejoin:miter;stroke-miterlimit:10;"/><path d="M105,52.314 C105,63.512 105,72.564 105,83.751" style="stroke:#181818;stroke-width:1;" fill="none"/></g><g class="link" data-entity-1="ent0002" data-entity-2="ent0003" id="lnk10" data-link-type="dependency"><polygon points="105,165.751,109,156.751,105,160.751,101,156.751,105,165.751" fill="#181818" style="stroke:#181818;stroke-width:1;stroke-linejoin:miter;stroke-miterlimit:10;"/><path d="M105,129.314 C105,140.512 105,149.564 105,160.751" style="stroke:#181818;stroke-width:1;" fill="none"/></g><g class="link" data-entity-1="ent0003" data-entity-2="ent0004" id="lnk11" data-link-type="dependency"><polygon points="105,242.751,109,233.751,105,237.751,101,233.751,105,242.751" fill="#181818" style="stroke:#181818;stroke-width:1;stroke-linejoin:miter;stroke-miterlimit:10;"/><path d="M105,206.314 C105,217.512 105,226.564 105,237.751" style="stroke:#181818;stroke-width:1;" fill="none"/></g><g class="link" data-entity-1="ent0004" data-entity-2="ent0005" id="lnk12" data-link-type="dependency"><polygon points="49.464,340.771,53.807,331.932,49.656,335.775,45.813,331.624,49.464,340.771" fill="#181818" style="stroke:#181818;stroke-width:1;stroke-linejoin:miter;stroke-miterlimit:10;"/><path d="M74.52,283.141 C68.52,288.246 62.886,294.25 59,301 C52.072,313.033 50.124,323.638 49.656,335.775" style="stroke:#181818;stroke-width:1;" fill="none"/><text x="61" y="318.08" fill="#000" font-size="13" textLength="72.332" font-family="'Noto Sans CJK SC'">IPC目标地址</text></g><g class="link" data-entity-1="ent0004" data-entity-2="ent0006" id="lnk13" data-link-type="dependency"><polygon points="158.391,340.909,157.747,331.081,156.066,336.482,150.665,334.801,158.391,340.909" fill="#181818" style="stroke:#181818;stroke-width:1;stroke-linejoin:miter;stroke-miterlimit:10;"/><path d="M121.527,283.106 C126.096,288.721 130.917,294.976 135,301 C143.692,313.824 149.869,324.683 156.066,336.482" style="stroke:#181818;stroke-width:1;" fill="none"/><text x="149" y="318.08" fill="#000" font-size="13" textLength="52" font-family="'Noto Sans CJK SC'">其他目标</text></g><g class="link" data-entity-1="ent0005" data-entity-2="ent0007" id="lnk14" data-link-type="dependency"><polygon points="48.513,417.751,52.752,408.861,48.647,412.753,44.755,408.648,48.513,417.751" fill="#181818" style="stroke:#181818;stroke-width:1;stroke-linejoin:miter;stroke-miterlimit:10;"/><path d="M49.485,381.314 C49.186,392.512 48.945,401.566 48.647,412.753" style="stroke:#181818;stroke-width:1;" fill="none"/></g><g class="link" data-entity-1="ent0006" data-entity-2="ent0008" id="lnk15" data-link-type="dependency"><polygon points="168.743,417.751,172.623,408.699,168.677,412.752,164.624,408.805,168.743,417.751" fill="#181818" style="stroke:#181818;stroke-width:1;stroke-linejoin:miter;stroke-miterlimit:10;"/><path d="M168.258,381.314 C168.407,392.512 168.528,401.565 168.677,412.752" style="stroke:#181818;stroke-width:1;" fill="none"/></g><?plantuml-src TO_FIiD04CRl-nH3xgN9rODG8s8Kmv8edfTasuQcsP1T2TxgGNm0OnN_G0yAlLWLHCM-ZccQjt2p2PABXzdzcDytmpTy54GnISWOVDed9w7OOP6moPY2PZF1m2KH1tDl7rnJGyF0fy05JIWJfp55_6-O3udFqY0QG9-4d2AKK4-GQ13AFGVcKVwT5TbS0yAXXt4RRhdRu39lH8KaLkEmseumjJ0SchXhOOMbREFrvqkHlHNFq-BgIN6dJOFOqrNNmcQxdv98Xt9viruyrWkKwRXdjqshsLTv_LvERikpotgBkQl_Pp2W2nZZncOW90-5JcTJdIDBwIgxBAKTvAXV9eEDwYtk5glPHNx_cZzC6YO3IPQVV_mifpL6bRr2LPGArzhu1G00?></g></svg>