<svg xmlns="http://www.w3.org/2000/svg" xmlns:xlink="http://www.w3.org/1999/xlink" version="1.1" data-diagram-type="DESCRIPTION" style="width:697px;height:951px;background:#FFFFFF;" width="697px" height="951px" viewBox="0 0 697 951" zoomAndPan="magnify" preserveAspectRatio="none" contentStyleType="text/css"><?plantuml 1.2026.8?><defs/><g font-family="sans-serif" lengthAdjust="spacing"><!--entity pktIn--><g class="entity" data-qualified-name="pktIn" id="ent0001" data-source-line="5"><rect x="6" y="12" width="309.463" height="40.272" fill="#F1F1F1" style="stroke:#181818;stroke-width:0.5;" rx="2.5" ry="2.5"/><text x="16" y="38.24" fill="#000" font-size="14" textLength="289.463" font-family="'Noto Sans CJK SC'">原始报文到达网络观察点 lwIP Ingress / Egress</text></g><!--entity checkEn--><g class="entity" data-qualified-name="checkEn" id="ent0002" data-source-line="6"><rect x="77" y="89" width="166.635" height="60.544" fill="#F1F1F1" style="stroke:#181818;stroke-width:0.5;" rx="2.5" ry="2.5"/><text x="87" y="115.24" fill="#000" font-size="14" textLength="126.797" font-family="'Noto Sans CJK SC'">1. 抓包功能是否启用</text><text x="87" y="135.512" fill="#000" font-size="14" textLength="146.635" font-family="'Noto Sans CJK SC'">且匹配网卡监听白名单?</text></g><!--entity passOriginal--><g class="entity" data-qualified-name="passOriginal" id="ent0003" data-source-line="7"><rect x="136" y="818" width="247.303" height="40.272" fill="#F1F1F1" style="stroke:#181818;stroke-width:0.5;" rx="2.5" ry="2.5"/><text x="146" y="844.24" fill="#000" font-size="14" textLength="227.303" font-family="'Noto Sans CJK SC'">原路径继续：无延迟无损耗送入 lwIP</text></g><!--entity checkBudget--><g class="entity" data-qualified-name="checkBudget" id="ent0004" data-source-line="8"><rect x="150" y="208" width="188.797" height="60.544" fill="#F1F1F1" style="stroke:#181818;stroke-width:0.5;" rx="2.5" ry="2.5"/><text x="160" y="234.24" fill="#000" font-size="14" textLength="168.797" font-family="'Noto Sans CJK SC'">2. 过滤及包率字节预算检查</text><text x="160" y="254.512" fill="#000" font-size="14" textLength="164.863" font-family="'Noto Sans CJK SC'">(Token Bucket 速率限制)?</text></g><!--entity dropCount1--><g class="entity" data-qualified-name="dropCount1" id="ent0005" data-source-line="9"><rect x="136.5" y="406" width="170.499" height="40.272" fill="#F1F1F1" style="stroke:#181818;stroke-width:0.5;" rx="2.5" ry="2.5"/><text x="146.5" y="432.24" fill="#000" font-size="14" textLength="150.499" font-family="'Noto Sans CJK SC'">仅递增预算 Drop 计数器</text></g><!--entity acquireSlot--><g class="entity" data-qualified-name="acquireSlot" id="ent0006" data-source-line="10"><rect x="250" y="327" width="202.797" height="60.544" fill="#F1F1F1" style="stroke:#181818;stroke-width:0.5;" rx="2.5" ry="2.5"/><text x="260" y="353.24" fill="#000" font-size="14" textLength="182.797" font-family="'Noto Sans CJK SC'">3. 尝试原子预约私有抓包槽位</text><text x="260" y="373.512" fill="#000" font-size="14" textLength="137.073" font-family="'Noto Sans CJK SC'">(非阻塞 Try-Acquire)?</text></g><!--entity dropCount2--><g class="entity" data-qualified-name="dropCount2" id="ent0007" data-source-line="11"><rect x="240.5" y="543" width="170.499" height="60.544" fill="#F1F1F1" style="stroke:#181818;stroke-width:0.5;" rx="2.5" ry="2.5"/><text x="250.5" y="569.24" fill="#000" font-size="14" textLength="150.499" font-family="'Noto Sans CJK SC'">仅递增溢出 Drop 计数器</text><text x="250.5" y="589.512" fill="#000" font-size="14" textLength="135.463" font-family="'Noto Sans CJK SC'">(不阻塞正常业务通信)</text></g><!--entity copyPkt--><g class="entity" data-qualified-name="copyPkt" id="ent0008" data-source-line="12"><rect x="357.5" y="464" width="221.515" height="60.544" fill="#F1F1F1" style="stroke:#181818;stroke-width:0.5;" rx="2.5" ry="2.5"/><text x="367.5" y="490.24" fill="#000" font-size="14" textLength="199.877" font-family="'Noto Sans CJK SC'">4. 限长只读复制 (SnapLen 截断)</text><text x="367.5" y="510.512" fill="#000" font-size="14" textLength="201.515" font-family="'Noto Sans CJK SC'">只读持有 pbuf，杜绝长周期引用</text></g><!--entity checkValid--><g class="entity" data-qualified-name="checkValid" id="ent0009" data-source-line="13"><rect x="385" y="622" width="167.433" height="40.272" fill="#F1F1F1" style="stroke:#181818;stroke-width:0.5;" rx="2.5" ry="2.5"/><text x="395" y="648.24" fill="#000" font-size="14" textLength="147.433" font-family="'Noto Sans CJK SC'">5. 快照与分段校验完整?</text></g><!--entity discardSlot--><g class="entity" data-qualified-name="discardSlot" id="ent0010" data-source-line="14"><rect x="287.5" y="720" width="170.499" height="60.544" fill="#F1F1F1" style="stroke:#181818;stroke-width:0.5;" rx="2.5" ry="2.5"/><text x="297.5" y="746.24" fill="#000" font-size="14" textLength="137.381" font-family="'Noto Sans CJK SC'">归还槽位至 FREE 状态</text><text x="297.5" y="766.512" fill="#000" font-size="14" textLength="150.499" font-family="'Noto Sans CJK SC'">递增快照损坏 Drop 计数</text></g><!--entity publishSlot--><g class="entity" data-qualified-name="publishSlot" id="ent0011" data-source-line="15"><rect x="476" y="720" width="204.687" height="60.544" fill="#F1F1F1" style="stroke:#181818;stroke-width:0.5;" rx="2.5" ry="2.5"/><text x="486" y="746.24" fill="#000" font-size="14" textLength="184.351" font-family="'Noto Sans CJK SC'">6. Release 标记槽位为 READY</text><text x="486" y="766.512" fill="#000" font-size="14" textLength="184.687" font-family="'Noto Sans CJK SC'">异步通知 StorageOwner 消费</text></g><!--entity pktOut--><g class="entity" data-qualified-name="pktOut" id="ent0012" data-source-line="16"><rect x="165.5" y="895" width="187.999" height="40.272" fill="#F1F1F1" style="stroke:#181818;stroke-width:0.5;" rx="2.5" ry="2.5"/><text x="175.5" y="921.24" fill="#000" font-size="14" textLength="167.999" font-family="'Noto Sans CJK SC'">原始报文继续正常收发处理</text></g><g class="link" data-entity-1="ent0001" data-entity-2="ent0002" id="lnk13" data-link-type="dependency"><polygon points="160.5,88.771,164.5,79.771,160.5,83.771,156.5,79.771,160.5,88.771" fill="#181818" style="stroke:#181818;stroke-width:1;stroke-linejoin:miter;stroke-miterlimit:10;"/><path d="M160.5,52.401 C160.5,63.142 160.5,71.719 160.5,83.771" style="stroke:#181818;stroke-width:1;" fill="none"/></g><g class="link" data-entity-1="ent0002" data-entity-2="ent0003" id="lnk14" data-link-type="dependency"><polygon points="181.627,817.918,174.801,810.818,176.997,816.032,171.783,818.227,181.627,817.918" fill="#181818" style="stroke:#181818;stroke-width:1;stroke-linejoin:miter;stroke-miterlimit:10;"/><path d="M144.637,150.384 C133.84,173.502 121.5,206.668 121.5,237.5 C121.5,237.5 121.5,237.5 121.5,751.5 C121.5,784.475 145.694,803.282 176.997,816.032" style="stroke:#181818;stroke-width:1;" fill="none"/><text x="123.5" y="500.58" fill="#000" font-size="13" font-family="'Noto Sans CJK SC'">否</text></g><g class="link" data-entity-1="ent0002" data-entity-2="ent0004" id="lnk15" data-link-type="dependency"><polygon points="223.31,207.985,221.31,198.342,220.394,203.924,214.812,203.007,223.31,207.985" fill="#181818" style="stroke:#181818;stroke-width:1;stroke-linejoin:miter;stroke-miterlimit:10;"/><path d="M181.697,150.024 C194.431,167.76 207.661,186.189 220.394,203.924" style="stroke:#181818;stroke-width:1;" fill="none"/><text x="212.5" y="185.08" fill="#000" font-size="13" font-family="'Noto Sans CJK SC'">是</text></g><g class="link" data-entity-1="ent0004" data-entity-2="ent0005" id="lnk16" data-link-type="dependency"><polygon points="220.824,405.603,224.635,396.521,220.719,400.604,216.636,396.689,220.824,405.603" fill="#181818" style="stroke:#181818;stroke-width:1;stroke-linejoin:miter;stroke-miterlimit:10;"/><path d="M233.155,269.066 C231.3,274.932 229.621,281.101 228.5,287 C220.573,328.714 220.157,373.716 220.719,400.604" style="stroke:#181818;stroke-width:1;" fill="none"/><text x="230.5" y="304.08" fill="#000" font-size="13" textLength="52" font-family="'Noto Sans CJK SC'">预算超限</text></g><g class="link" data-entity-1="ent0005" data-entity-2="ent0003" id="lnk17" data-link-type="dependency"><polygon points="245.35,817.695,243.81,807.968,242.63,813.5,237.098,812.32,245.35,817.695" fill="#181818" style="stroke:#181818;stroke-width:1;stroke-linejoin:miter;stroke-miterlimit:10;"/><path d="M221.5,446.299 C221.5,474.164 221.5,527.284 221.5,572.5 C221.5,572.5 221.5,572.5 221.5,751.5 C221.5,775.866 231.826,796.837 242.63,813.5" style="stroke:#181818;stroke-width:1;" fill="none"/></g><g class="link" data-entity-1="ent0004" data-entity-2="ent0006" id="lnk18" data-link-type="dependency"><polygon points="324.508,326.985,321.386,317.644,321.134,323.296,315.482,323.043,324.508,326.985" fill="#181818" style="stroke:#181818;stroke-width:1;stroke-linejoin:miter;stroke-miterlimit:10;"/><path d="M271.501,269.024 C287.721,286.76 304.915,305.561 321.134,323.296" style="stroke:#181818;stroke-width:1;" fill="none"/><text x="310.5" y="304.08" fill="#000" font-size="13" textLength="52" font-family="'Noto Sans CJK SC'">预算合格</text></g><g class="link" data-entity-1="ent0006" data-entity-2="ent0007" id="lnk19" data-link-type="dependency"><polygon points="322.62,542.87,325.956,533.603,322.257,537.883,317.977,534.184,322.62,542.87" fill="#181818" style="stroke:#181818;stroke-width:1;stroke-linejoin:miter;stroke-miterlimit:10;"/><path d="M335.491,388.245 C333.047,393.99 330.882,400.07 329.5,406 C318.577,452.887 319.807,504.228 322.257,537.883" style="stroke:#181818;stroke-width:1;" fill="none"/><text x="331.5" y="432.08" fill="#000" font-size="13" textLength="78" font-family="'Noto Sans CJK SC'">无可用空闲槽</text></g><g class="link" data-entity-1="ent0007" data-entity-2="ent0003" id="lnk20" data-link-type="dependency"><polygon points="261.714,817.773,266.792,809.335,262.33,812.812,258.853,808.349,261.714,817.773" fill="#181818" style="stroke:#181818;stroke-width:1;stroke-linejoin:miter;stroke-miterlimit:10;"/><path d="M314.435,604.217 C303.934,633.36 288.336,679.228 278.5,720 C270.296,754.008 265.225,789.482 262.33,812.812" style="stroke:#181818;stroke-width:1;" fill="none"/></g><g class="link" data-entity-1="ent0006" data-entity-2="ent0008" id="lnk21" data-link-type="dependency"><polygon points="454.134,463.594,453.46,453.768,451.795,459.175,446.389,457.51,454.134,463.594" fill="#181818" style="stroke:#181818;stroke-width:1;stroke-linejoin:miter;stroke-miterlimit:10;"/><path d="M396.107,388.061 C402.993,393.599 409.725,399.656 415.5,406 C431.162,423.205 442.334,441.295 451.795,459.175" style="stroke:#181818;stroke-width:1;" fill="none"/><text x="444.5" y="432.08" fill="#000" font-size="13" textLength="78" font-family="'Noto Sans CJK SC'">成功取得槽位</text></g><g class="link" data-entity-1="ent0008" data-entity-2="ent0009" id="lnk22" data-link-type="dependency"><polygon points="468.5,621.897,472.5,612.897,468.5,616.897,464.5,612.897,468.5,621.897" fill="#181818" style="stroke:#181818;stroke-width:1;stroke-linejoin:miter;stroke-miterlimit:10;"/><path d="M468.5,525.295 C468.5,554.228 468.5,592.283 468.5,616.897" style="stroke:#181818;stroke-width:1;" fill="none"/></g><g class="link" data-entity-1="ent0009" data-entity-2="ent0010" id="lnk23" data-link-type="dependency"><polygon points="399.301,719.767,408.298,715.761,402.649,716.054,402.356,710.404,399.301,719.767" fill="#181818" style="stroke:#181818;stroke-width:1;stroke-linejoin:miter;stroke-miterlimit:10;"/><path d="M451.337,662.04 C436.883,678.075 419.308,697.572 402.649,716.054" style="stroke:#181818;stroke-width:1;" fill="none"/><text x="436.5" y="697.08" fill="#000" font-size="13" textLength="52" font-family="'Noto Sans CJK SC'">校验失败</text></g><g class="link" data-entity-1="ent0010" data-entity-2="ent0003" id="lnk24" data-link-type="dependency"><polygon points="284.835,817.83,294.426,815.59,288.822,814.814,289.599,809.21,284.835,817.83" fill="#181818" style="stroke:#181818;stroke-width:1;stroke-linejoin:miter;stroke-miterlimit:10;"/><path d="M333.295,781.164 C317.232,793.318 303.091,804.017 288.822,814.814" style="stroke:#181818;stroke-width:1;" fill="none"/></g><g class="link" data-entity-1="ent0009" data-entity-2="ent0011" id="lnk25" data-link-type="dependency"><polygon points="547.79,719.767,544.107,710.633,544.198,716.29,538.542,716.381,547.79,719.767" fill="#181818" style="stroke:#181818;stroke-width:1;stroke-linejoin:miter;stroke-miterlimit:10;"/><path d="M488.166,662.04 C504.727,678.075 525.109,697.808 544.198,716.29" style="stroke:#181818;stroke-width:1;" fill="none"/><text x="528.5" y="697.08" fill="#000" font-size="13" textLength="52" font-family="'Noto Sans CJK SC'">校验合格</text></g><g class="link" data-entity-1="ent0011" data-entity-2="ent0003" id="lnk26" data-link-type="dependency"><polygon points="330.705,817.915,340.434,819.449,335.535,816.621,338.363,811.722,330.705,817.915" fill="#181818" style="stroke:#181818;stroke-width:1;stroke-linejoin:miter;stroke-miterlimit:10;"/><path d="M475.81,779.023 C428.455,791.716 378.244,805.174 335.535,816.621" style="stroke:#181818;stroke-width:1;" fill="none"/></g><g class="link" data-entity-1="ent0003" data-entity-2="ent0012" id="lnk27" data-link-type="dependency"><polygon points="259.5,894.751,263.5,885.751,259.5,889.751,255.5,885.751,259.5,894.751" fill="#181818" style="stroke:#181818;stroke-width:1;stroke-linejoin:miter;stroke-miterlimit:10;"/><path d="M259.5,858.314 C259.5,869.512 259.5,878.564 259.5,889.751" style="stroke:#181818;stroke-width:1;" fill="none"/></g><?plantuml-src RLH1Szf66BthL-pu51zC9sxQGm_j90wPSTg9CoQJcSxuei0QQr0aAedn-8PT4mW58wV6sAwnZ6E2wnPmMvTY1ERFyAsaK_v2LwnZ5fmJoxxTzxrzt_kanoGbBchYQnJ1os92DfweYl5CV8tHr3FLK558L7Gqz_Hx59gR4bQa24QwWJMi6cjnBEYtb_KLCQAkIaeKBOkoZWL1ms53LA8ovO4j2sg_a6oLxAOXS-5UNpkzRSS-T6iRqBISZIiahyu_H_DALCEwZhv0mU5Y2eawYiUCUOKdknz09Fihv5AGjToVUsIl2UO7C9lEpjcICcZlGExAI-Lf0SXNdD-smVpJsU-1cOTyyRiXOtW5XsD1PKAW-ryJhZSTk-ROzO_T0r8w1hlbzYsw87dBJPQyv3gagaEbJ9YewmkQ59KKKUQvPWF8xQU9VGg5B5NfRAMXNdAp6zx9fjCeaVT9ObMNb7ilr1XMqAD4E8ODv2KjUixRDo7JckPKFaf4ejZWsGTsoak-WvCZHeSUQseSkOqAALx0_jdmPeHkpQa9nRZFN_moWE2Yx3QBVZFgfd-zyy6fhPF3jynEKkiDUdcgp2iVUNisL8xG2srjvc7ufuIauHjL8liNajNFgoAT4qXt9bHHpa4xppX9_JsqsuFs0MGhNl9WqAzCZukUvNaV110rnIlseN3kDcqupLE3qBsG8iP_eEwHp3dPhKylAGmcEVyrAFugiVoncoFbGySk-tUtpyYX1TqYJGYpLeslFO-DFU0hwax_3oTL6xIt8FE6DFubnnNlF0UD72bUSXrvASfIP2mwlNTkVu-PvwR_GKyMWq7aP5iakRwaC5COCqqHb0kyDUpXaXuMjSYaery7q2AMiQXZH8xJRkE2LHYqEsWn-F3nZ_JDtGrIhr8F7QkAGeQgYL6yiAfW3P5MnhsyOY5Dl98bVMMIdHz85ddM5xBJWi8sd6uwvfjFqxUGC0HXE8LePkRRs-cv-HtkyQE0la5q7iTWBieKfGChy3l-YL5awG6MRBULegqNE6IoqXqMBfotD61co75NuA6nWhE-8Zhh1V_xuVpUyKf_KwS53hzJTfBh9au-KSQa7oKexC9rYVLB-0JU-i02D5eoEQCG-3GiUgT_kPTLWOS-xy28XklsY8OPm4DtQCRwDqI7RVyV?></g></svg>