<svg xmlns="http://www.w3.org/2000/svg" xmlns:xlink="http://www.w3.org/1999/xlink" version="1.1" data-diagram-type="SEQUENCE" style="width:985px;height:455px;background:#FFFFFF;" width="985px" height="455px" viewBox="0 0 985 455" zoomAndPan="magnify" preserveAspectRatio="none" contentStyleType="text/css"><?plantuml 1.2026.8?><defs/><g font-family="sans-serif" lengthAdjust="spacing"><g><title>Modem CHR ..</title><rect x="69.269" y="45.272" width="8" height="364.24" fill="#000" fill-opacity="0"/><line x1="72.769" y1="45.272" x2="72.769" y2="409.512" style="stroke:#181818;stroke-width:0.5;stroke-dasharray:5,5;"/></g><g><title>ChrSession . Reactor</title><rect x="337.314" y="45.272" width="8" height="364.24" fill="#000" fill-opacity="0"/><line x1="340.814" y1="45.272" x2="340.814" y2="409.512" style="stroke:#181818;stroke-width:0.5;stroke-dasharray:5,5;"/></g><g><title>CHR .....</title><rect x="580.984" y="45.272" width="8" height="364.24" fill="#000" fill-opacity="0"/><line x1="584.484" y1="45.272" x2="584.484" y2="409.512" style="stroke:#181818;stroke-width:0.5;stroke-dasharray:5,5;"/></g><g><title>StorageOwner ..</title><rect x="752.491" y="45.272" width="8" height="364.24" fill="#000" fill-opacity="0"/><line x1="755.991" y1="45.272" x2="755.991" y2="409.512" style="stroke:#181818;stroke-width:0.5;stroke-dasharray:5,5;"/></g><rect x="10" y="10" width="125.538" height="34.272" fill="#E2E2F0" style="stroke:#181818;stroke-width:0.5;" rx="2.5" ry="2.5"/><text x="17" y="33.24" fill="#000" font-size="14" textLength="111.538" font-family="'Noto Sans CJK SC'">Modem CHR 固件</text><rect x="261.777" y="10" width="158.073" height="34.272" fill="#E2E2F0" style="stroke:#181818;stroke-width:0.5;" rx="2.5" ry="2.5"/><text x="268.777" y="33.24" fill="#000" font-size="14" textLength="144.073" font-family="'Noto Sans CJK SC'">ChrSession 及 Reactor</text><rect x="526.91" y="10" width="115.15" height="34.272" fill="#E2E2F0" style="stroke:#181818;stroke-width:0.5;" rx="2.5" ry="2.5"/><text x="533.91" y="33.24" fill="#000" font-size="14" textLength="101.15" font-family="'Noto Sans CJK SC'">CHR 专用无锁环</text><rect x="686.216" y="10" width="139.551" height="34.272" fill="#E2E2F0" style="stroke:#181818;stroke-width:0.5;" rx="2.5" ry="2.5"/><text x="693.216" y="33.24" fill="#000" font-size="14" textLength="125.551" font-family="'Noto Sans CJK SC'">StorageOwner 任务</text><rect x="10" y="409.512" width="125.538" height="34.272" fill="#E2E2F0" style="stroke:#181818;stroke-width:0.5;" rx="2.5" ry="2.5"/><text x="17" y="432.752" fill="#000" font-size="14" textLength="111.538" font-family="'Noto Sans CJK SC'">Modem CHR 固件</text><rect x="261.777" y="409.512" width="158.073" height="34.272" fill="#E2E2F0" style="stroke:#181818;stroke-width:0.5;" rx="2.5" ry="2.5"/><text x="268.777" y="432.752" fill="#000" font-size="14" textLength="144.073" font-family="'Noto Sans CJK SC'">ChrSession 及 Reactor</text><rect x="526.91" y="409.512" width="115.15" height="34.272" fill="#E2E2F0" style="stroke:#181818;stroke-width:0.5;" rx="2.5" ry="2.5"/><text x="533.91" y="432.752" fill="#000" font-size="14" textLength="101.15" font-family="'Noto Sans CJK SC'">CHR 专用无锁环</text><rect x="686.216" y="409.512" width="139.551" height="34.272" fill="#E2E2F0" style="stroke:#181818;stroke-width:0.5;" rx="2.5" ry="2.5"/><text x="693.216" y="432.752" fill="#000" font-size="14" textLength="125.551" font-family="'Noto Sans CJK SC'">StorageOwner 任务</text><line x1="338.814" y1="78.096" x2="328.814" y2="74.096" style="stroke:#181818;stroke-width:1;"/><line x1="338.814" y1="78.096" x2="328.814" y2="82.096" style="stroke:#181818;stroke-width:1;"/><line x1="72.769" y1="78.096" x2="339.814" y2="78.096" style="stroke:#181818;stroke-width:1;"/><text x="79.769" y="72.352" fill="#000" font-size="13" font-weight="700" font-family="'Noto Sans CJK SC'">1</text><text x="91.439" y="72.352" fill="#000" font-size="13" textLength="232.375" font-family="'Noto Sans CJK SC'">有序消息字节流 (带消息唯一标识 SeqID)</text><line x1="340.814" y1="110.92" x2="382.814" y2="110.92" style="stroke:#181818;stroke-width:1;"/><line x1="382.814" y1="110.92" x2="382.814" y2="123.92" style="stroke:#181818;stroke-width:1;"/><line x1="340.814" y1="123.92" x2="382.814" y2="123.92" style="stroke:#181818;stroke-width:1;"/><line x1="341.814" y1="123.92" x2="351.814" y2="119.92" style="stroke:#181818;stroke-width:1;"/><line x1="341.814" y1="123.92" x2="351.814" y2="127.92" style="stroke:#181818;stroke-width:1;"/><text x="347.814" y="105.176" fill="#000" font-size="13" font-weight="700" font-family="'Noto Sans CJK SC'">2</text><text x="359.484" y="105.176" fill="#000" font-size="13" textLength="143" font-family="'Noto Sans CJK SC'">帧边界校验与完整性确认</text><line x1="582.484" y1="156.744" x2="572.484" y2="152.744" style="stroke:#181818;stroke-width:1;"/><line x1="582.484" y1="156.744" x2="572.484" y2="160.744" style="stroke:#181818;stroke-width:1;"/><line x1="340.814" y1="156.744" x2="583.484" y2="156.744" style="stroke:#181818;stroke-width:1;"/><text x="347.814" y="151" fill="#000" font-size="13" font-weight="700" font-family="'Noto Sans CJK SC'">3</text><text x="359.484" y="151" fill="#000" font-size="13" textLength="208" font-family="'Noto Sans CJK SC'">完整记录或有界分段发布至环形队列</text><line x1="73.769" y1="189.568" x2="83.769" y2="185.568" style="stroke:#181818;stroke-width:1;"/><line x1="73.769" y1="189.568" x2="83.769" y2="193.568" style="stroke:#181818;stroke-width:1;"/><line x1="72.769" y1="189.568" x2="339.814" y2="189.568" style="stroke:#181818;stroke-width:1;stroke-dasharray:2,2;"/><text x="89.769" y="183.824" fill="#000" font-size="13" font-weight="700" font-family="'Noto Sans CJK SC'">4</text><text x="101.439" y="183.824" fill="#000" font-size="13" textLength="183.43" font-family="'Noto Sans CJK SC'">TCP 传输层 ACK (网络层已收妥)</text><path d="M525.809,202.568 L525.809,230.568 L813.809,230.568 L813.809,212.568 L803.809,202.568 L525.809,202.568" style="stroke:#181818;stroke-width:0.5;" fill="#FEFFDD"/><path d="M803.809,202.568 L803.809,212.568 L813.809,212.568 L803.809,202.568" style="stroke:#181818;stroke-width:0.5;" fill="#FEFFDD"/><text x="607.238" y="222.648" fill="#000" font-size="13" textLength="117" font-family="'Noto Sans CJK SC'">异步写盘与落盘确认</text><line x1="585.484" y1="261.216" x2="595.484" y2="257.216" style="stroke:#181818;stroke-width:1;"/><line x1="585.484" y1="261.216" x2="595.484" y2="265.216" style="stroke:#181818;stroke-width:1;"/><line x1="584.484" y1="261.216" x2="754.991" y2="261.216" style="stroke:#181818;stroke-width:1;"/><text x="601.484" y="255.472" fill="#000" font-size="13" font-weight="700" font-family="'Noto Sans CJK SC'">5</text><text x="613.154" y="255.472" fill="#000" font-size="13" textLength="135.837" font-family="'Noto Sans CJK SC'">按序消费待写入 CHR 块</text><line x1="755.991" y1="294.04" x2="797.991" y2="294.04" style="stroke:#181818;stroke-width:1;"/><line x1="797.991" y1="294.04" x2="797.991" y2="307.04" style="stroke:#181818;stroke-width:1;"/><line x1="755.991" y1="307.04" x2="797.991" y2="307.04" style="stroke:#181818;stroke-width:1;"/><line x1="756.991" y1="307.04" x2="766.991" y2="303.04" style="stroke:#181818;stroke-width:1;"/><line x1="756.991" y1="307.04" x2="766.991" y2="311.04" style="stroke:#181818;stroke-width:1;"/><text x="762.991" y="288.296" fill="#000" font-size="13" font-weight="700" font-family="'Noto Sans CJK SC'">6</text><text x="774.661" y="288.296" fill="#000" font-size="13" textLength="193.089" font-family="'Noto Sans CJK SC'">写入 FatFs 并在边界调用 f_sync()</text><line x1="341.814" y1="339.864" x2="351.814" y2="335.864" style="stroke:#181818;stroke-width:1;"/><line x1="341.814" y1="339.864" x2="351.814" y2="343.864" style="stroke:#181818;stroke-width:1;"/><line x1="340.814" y1="339.864" x2="754.991" y2="339.864" style="stroke:#181818;stroke-width:1;stroke-dasharray:2,2;"/><text x="357.814" y="334.12" fill="#000" font-size="13" font-weight="700" font-family="'Noto Sans CJK SC'">7</text><text x="369.484" y="334.12" fill="#000" font-size="13" textLength="303.784" font-family="'Noto Sans CJK SC'">同步检查点确认 (已完成持久化至 generation/SeqID)</text><line x1="73.769" y1="391.512" x2="83.769" y2="387.512" style="stroke:#181818;stroke-width:1;"/><line x1="73.769" y1="391.512" x2="83.769" y2="395.512" style="stroke:#181818;stroke-width:1;"/><line x1="72.769" y1="391.512" x2="339.814" y2="391.512" style="stroke:#181818;stroke-width:1;stroke-dasharray:2,2;"/><text x="89.769" y="376.356" fill="#000" font-size="13" font-weight="700" font-family="'Noto Sans CJK SC'">8</text><text x="101.439" y="366.944" fill="#000" font-size="13" textLength="196.508" font-family="'Noto Sans CJK SC'">协议允许时发送应用级持久化 ACK</text><text x="101.439" y="385.768" fill="#000" font-size="13" textLength="213.434" font-family="'Noto Sans CJK SC'">(Modem 端可安全回收内部诊断缓存)</text><?plantuml-src RPBTRz9G6CRlzrUyuGeIZVUxM69OYBeu3NXfOkhM8PcqanO_xYYaZ94wMFWqe0ELGJIqSswiVFurVKyF_uMdxKJcrgjpJfxdES_vlPLsOy8Ub-3YiCtlSCdNSaWKv4qkpeDlKvH5Y7221C576n09-bQ0VLnI5eLa_2MVSBVCAyUsOdkS88FliRZDno7u80pO65dZWGyu2Tp3czhWgqI4bwIOA00MyX3ckIrPJBYEyFjRv2pKCajskKTghNbPiGyDJniJeZVL4HR5HVadxmG-0TPuZFcsgrwFIRihhjohUdTjZTq6gq2Q1pWga46EA0RsQpIV9XSA-D4ykJeh6vQP8grzQcGXmhzvk1vmOvXvaO5cbyw6TaKZhVRyXsQPXwXhf79EKbsxhLFz-pK7w-ruN0NLJt5Q8Raggy7ycCiI_G8BHsXcwFvlzbISVftNZp5NMqGu6TuRLk5Py2bOanQTbV1N6ku7Dy1lJu_iSPDjyVACb0TuqWbuxnP4cGVnBSFYDBZZ075gJDAaty7i9xjHPxrfSSeMIwLTsL9jebtXekT3dAdCY6h76_pdsdN7tniyIOYJGnBWS83DdWUBdcROK67dXVH1sF87bip_m1OrrevyIv7ZZfqUUhtOS2xF77ov8j4KQwYYLcMm8CgpcNCo-w_k_JUdPMJuiK1r7LM5wYQf3HZhUKh1KPbLiKVTHQ03yxdWzrpsJmCB1ke7gFQmySN1cbNdcHurygJQjoSbxDS3Vm00?></g></svg>